<svg width="120" height="120" viewBox="0 0 120 120" fill="none" xmlns="http://www.w3.org/2000/svg">
<path fill-rule="evenodd" clip-rule="evenodd" d="M11 51.1667C11 74.3333 29.8333 93.3333 53.1667 93.3333C64.3333 93.3333 75 88.8333 83 81C91 73 95.3333 62.5 95.3333 51.1667C95.3333 27.8333 76.3333 9 53.1667 9C29.8333 9 11 27.8333 11 51.1667ZM14.1667 51.1667C14.1667 29.6667 31.6667 12.1667 53.1667 12.1667C74.6667 12.1667 92.1667 29.6667 92.3333 51C92.3333 61.5 88.1667 71.3333 80.8333 78.6667C73.3333 86.1667 63.6667 90.1667 53.1667 90.1667C31.6667 90.1667 14.1667 72.6667 14.1667 51.1667ZM53.1667 53.3333C49.1667 53.3333 45.8333 50.4999 44.8333 46.4999C44.5 45.3333 43.6667 41.1666 43.5 39.6666C43.3333 37.4999 43.3333 36.6666 43.5 35.1666C44 31.1666 48.1667 28.3333 53 28.3333C57.8333 28.3333 62 31.3333 62.5 35.1666C62.8333 36.6666 62.8333 37.4999 62.6667 39.6666C62.6667 41.1666 61.5 46.3333 61.5 46.3333C60.6667 50.4999 57.1667 53.3333 53.1667 53.3333ZM53.1667 31.8333C49.8333 31.8333 47 33.4999 46.6667 35.8333C46.5 36.9999 46.5 37.6666 46.5 39.9999C46.5 40.4819 46.9356 42.5321 47.3029 44.2608L47.3029 44.261L47.303 44.261C47.4437 44.9233 47.5743 45.5383 47.6667 45.9999C48.3333 48.6666 50.5 50.4999 53 50.4999C55.5 50.4999 57.6667 48.6666 58.3333 45.9999C58.8333 43.9999 59.5 40.6666 59.5 39.8333C59.6667 37.8333 59.6667 37.1666 59.5 35.9999C59.3333 33.6666 56.5 31.8333 53.1667 31.8333ZM61.6667 53.5L68.3334 57.1667C73.1793 60.2127 74.5747 68.0894 75.0993 71.051L75.0993 71.0512L75.0994 71.0514C75.2062 71.6546 75.277 72.0539 75.3334 72.1667C75.3334 72.6667 75.1667 73 74.8334 73.3333C74.5 73.6667 74.1667 73.8333 73.6667 73.8333H33C32.5 73.8333 32.1667 73.6667 31.8334 73.3333C31.5 73 31.3334 72.6667 31.3334 72.1667C31.3334 71.6667 32.1667 60.8333 38 57.3333L44.8334 53.6667C45 53.5 45.3334 53.5 45.5 53.5H46L53.1667 56.3333L60.3334 53.5C60.8334 53.3333 61.3334 53.3333 61.6667 53.5ZM56.6667 58.3333L59.3334 60V57.3333L56.6667 58.3333ZM49.6667 58.3333L47 57.3333V60L49.6667 58.3333ZM55 65.8333H51.5L51 70.5H55.5L55 65.8333ZM54.8334 62.6667V61.1667V60.8333L53.1667 59.8333L51.5 60.8333C51.5 60.9167 51.5417 60.9583 51.5834 61C51.625 61.0417 51.6667 61.0833 51.6667 61.1667V62.6667H54.8334ZM43.8334 57.6667L39.5 60C36.5 61.8333 35 67.1667 34.6667 70.6667H48L48.6667 64.3333V62.8333L46.3334 64.1667C46 64.3333 45.8334 64.3333 45.5 64.3333C45.1667 64.3333 44.8334 64.3333 44.6667 64.1667C44.1667 64 43.8334 63.3333 43.8334 62.8333V57.6667ZM57.8334 64.1667L58.5 70.5H72C71.5 67.1667 70.1667 61.6667 67 59.8333L62.6667 57.5V62.6667C62.6667 63.1667 62.3334 63.6667 61.8334 64C61.5 64.1667 61.3334 64.1667 61 64.1667C60.6667 64.1667 60.3334 64.1667 60.1667 64L57.8334 62.6667V64.1667ZM110.5 88.6668L93.5 71.6667C93 72.6667 92.5 73.5001 91.8333 74.5001L107.167 89.8334L91.6667 105.333L76.3333 90.0001C75.8333 90.2501 75.375 90.5417 74.9167 90.8334C74.4583 91.1251 74 91.4167 73.5 91.6667L90.5 108.667C90.8333 109 91.1667 109.167 91.6667 109.167C92 109.167 92.5 109 92.8333 108.667L110.5 91.0001C111.167 90.3334 111.167 89.3334 110.5 88.6668Z" fill="white"/>
</svg>
