<svg width="120" height="120" viewBox="0 0 120 120" fill="none" xmlns="http://www.w3.org/2000/svg">
<path d="M109.594 54.9625L74.286 18.4349C73.7233 17.855 72.7387 17.855 72.0353 18.4349L63.4545 27.2769C63.1731 27.5668 63.0325 28.0016 63.0325 28.4365C63.0325 28.8713 63.1731 29.3062 63.4545 29.5961L67.8152 34.0895H52.2009L56.5616 29.5961C57.1243 29.0163 57.1243 28.0016 56.5616 27.2769L47.9808 18.4349C47.4181 17.855 46.4334 17.855 45.7301 18.4349L10.422 54.9625C9.85933 55.5423 9.85933 56.5569 10.422 57.2817L19.0029 66.1237C19.2842 66.4136 19.7062 66.5585 20.1282 66.5585C20.5502 66.5585 20.9722 66.4136 21.2536 66.1237L23.5043 63.8045L29.1311 69.6025L27.5837 71.197C25.0517 73.8061 25.0517 78.1546 27.5837 80.9087C28.8497 82.2132 30.5378 82.938 32.2258 82.938C32.5071 82.938 32.6478 82.793 32.9291 82.793C32.9291 83.0829 32.7885 83.2279 32.7885 83.5178C32.7885 85.4022 33.4918 87.1416 34.7579 88.3012C36.0239 89.6057 37.7119 90.3305 39.4 90.3305C39.6813 90.3305 39.822 90.1855 40.1033 90.1855C40.1033 90.4754 39.9626 90.6204 39.9626 90.9103C39.9626 92.7947 40.666 94.3891 41.932 95.6937C43.198 96.9982 44.8861 97.723 46.5741 97.723C46.8554 97.723 46.9961 97.578 47.2775 97.578C47.1368 99.6073 47.5588 101.637 49.1062 103.086C50.3722 104.391 52.0602 105.115 53.7483 105.115C55.4363 105.115 57.1243 104.391 58.3904 103.086L59.9377 101.492L61.4851 103.086C62.7511 104.391 64.4392 105.115 66.1272 105.115C67.8152 105.115 69.5033 104.391 70.7693 103.086C72.0353 101.782 72.7387 100.042 72.7387 98.3028C72.7387 98.1578 72.7387 97.8679 72.7387 97.723C74.708 97.8679 76.5367 97.2881 77.9434 95.6937C79.2095 94.3891 79.9128 92.6497 79.9128 90.9103C79.9128 90.7653 79.9128 90.4754 79.9128 90.3305C81.7415 90.4754 83.7109 89.8956 85.1176 88.3012C86.5243 86.8517 87.2276 84.8224 87.087 82.938C87.2276 82.938 87.3683 82.938 87.6496 82.938C89.4783 82.938 91.0257 82.2132 92.2917 80.9087C94.8238 78.1546 94.8238 73.951 92.2917 71.197L90.7444 69.6025L96.3712 63.8045L98.6219 66.1237C98.9032 66.4136 99.3252 66.5585 99.7472 66.5585C100.169 66.5585 100.591 66.4136 100.873 66.1237L109.453 57.2817C110.157 56.5569 110.157 55.5423 109.594 54.9625ZM20.1282 62.6449L13.7981 56.1221L46.9961 21.9137L53.3262 28.4365L20.1282 62.6449ZM29.8344 78.4445C28.4277 76.995 28.4277 74.6758 29.8344 73.3712L35.1799 67.8631C36.4459 66.5585 38.8373 66.5585 40.1033 67.8631C41.51 69.3126 41.51 71.6318 40.1033 72.9364L34.6172 78.5895C33.3512 79.894 31.1004 79.894 29.8344 78.4445ZM39.5406 86.9966C38.5559 86.9966 37.7119 86.5618 37.0086 85.982C36.3052 85.2572 36.0239 84.3875 36.0239 83.3728C36.0239 82.3582 36.4459 81.4885 37.0086 80.7637L44.7454 72.7914C45.4487 72.0667 46.2928 71.7768 47.2775 71.7768C48.2621 71.7768 49.1062 72.2116 49.8095 72.7914C51.2162 74.2409 51.2162 76.5602 49.8095 77.8647L42.0727 85.837C41.2287 86.5618 40.3846 86.9966 39.5406 86.9966ZM46.7148 94.3891C45.7301 94.3891 44.8861 93.9543 44.1827 93.3745C43.4794 92.6497 43.198 91.78 43.198 90.7653C43.198 89.7507 43.62 88.881 44.1827 88.1562L49.6688 82.5031C50.3722 81.7784 51.2162 81.4885 52.2009 81.4885C53.1856 81.4885 54.0296 81.9233 54.7329 82.5031C55.4363 83.2279 55.7176 84.0976 55.7176 85.1123C55.7176 86.1269 55.2956 86.9966 54.7329 87.7214L49.1062 93.3745C48.4028 93.9543 47.5588 94.3891 46.7148 94.3891ZM56.2803 100.767C54.8736 102.216 52.6229 102.216 51.3569 100.767C49.9502 99.3174 49.9502 96.9982 51.3569 95.6937L54.8736 92.0699C55.577 91.3451 56.421 91.0552 57.4057 91.0552C58.2497 91.0552 59.2344 91.4901 59.9377 92.0699C61.3444 93.5194 61.3444 95.8386 59.9377 97.1432L56.2803 100.767ZM90.3224 78.4445C89.619 79.1693 88.775 79.4592 87.7903 79.4592C86.8056 79.4592 85.9616 79.0243 85.2583 78.4445C84.6956 77.8647 83.7109 77.8647 83.0075 78.4445C82.7262 78.7344 82.5855 79.1693 82.5855 79.6041C82.5855 80.039 82.7262 80.4738 83.0075 80.7637C84.4142 82.2132 84.4142 84.5325 83.0075 85.837C81.6008 87.2865 79.3501 87.2865 78.0841 85.837C77.5214 85.2572 76.5367 85.2572 75.8334 85.837C75.552 86.1269 75.4114 86.5618 75.4114 86.9966C75.4114 87.4315 75.552 87.8663 75.8334 88.1562C76.5367 88.881 76.8181 89.7507 76.8181 90.7653C76.8181 91.78 76.3961 92.6497 75.8334 93.3745C74.4267 94.824 72.176 94.824 70.91 93.3745C70.3473 92.7947 69.3626 92.7947 68.6592 93.3745C68.3779 93.6644 68.2372 94.0992 68.2372 94.5341C68.2372 94.9689 68.3779 95.4038 68.6592 95.6937C69.3626 96.4184 69.6439 97.2881 69.6439 98.3028C69.6439 99.3174 69.2219 100.187 68.6592 100.767C67.2525 102.216 65.0018 102.216 63.7358 100.767L62.1884 99.1725C64.5798 96.5634 64.5798 92.3598 62.0478 89.7507C61.0631 88.736 59.6564 88.1562 58.2497 87.8663C58.6717 86.9966 58.8124 86.1269 58.8124 85.1123C58.8124 83.2279 58.109 81.4885 56.843 80.3289C55.8583 79.3142 54.4516 78.7344 53.0449 78.5895C54.3109 75.9804 53.8889 72.7914 51.9195 70.7621C49.9502 68.7328 46.7148 68.4429 44.3234 69.6025C44.1827 68.153 43.62 66.7035 42.4947 65.6888C39.9626 63.0797 35.6019 63.0797 33.0698 65.6888L31.2411 67.2833L25.6143 61.4853L49.1062 37.4234H60.3597L49.9502 48.1498C47.4181 50.7589 47.4181 55.1074 49.9502 57.8615C51.2162 59.166 52.9042 59.8908 54.5923 59.8908C56.2803 59.8908 57.9683 59.166 59.2344 57.8615L67.2525 49.5993C69.3626 50.469 71.8946 50.0341 73.3013 49.7442C74.1454 51.0488 74.5674 52.6433 73.442 53.9478C72.8793 54.5276 72.8793 55.5423 73.442 56.267L90.1817 73.5162C91.5884 74.8207 91.5884 77.14 90.3224 78.4445ZM88.775 67.2833L76.5367 54.6726C77.8028 52.2084 77.3808 49.0195 74.9894 46.7003C74.5674 46.2654 74.0047 46.1205 73.442 46.2654C72.176 46.7003 69.0812 47.1351 67.9559 46.2654C67.3932 45.8306 66.4085 45.8306 65.9865 46.4104L57.1243 55.5423C55.7176 56.8468 53.6076 56.8468 52.2009 55.5423C50.7942 54.0928 50.7942 51.7736 52.2009 50.469L64.8612 37.4234H71.0506L94.4018 61.4853L88.775 67.2833ZM99.8879 62.6449L66.6899 28.4365L73.02 21.9137L106.218 56.1221L99.8879 62.6449Z" fill="white"/>
</svg>
