<svg width="120" height="120" viewBox="0 0 120 120" fill="none" xmlns="http://www.w3.org/2000/svg">
<path fill-rule="evenodd" clip-rule="evenodd" d="M44.9037 41.0178V29.8277H63.7314C64.6195 29.8277 65.33 29.1172 65.33 28.2291V15.7957C65.33 14.9076 64.6195 14.1972 63.7314 14.1972H44.9037V12.5986C44.9037 11.7105 44.1932 11 43.3051 11C42.417 11 41.7065 11.7105 41.7065 12.5986V15.7957V28.2291V41.0178C41.8178 40.9807 41.9212 40.9436 42.0202 40.9082C42.3954 40.7737 42.7059 40.6625 43.1275 40.6625C43.838 40.6625 44.3708 40.8401 44.9037 41.0178ZM62.1328 17.2167V26.6306H44.9037V17.2167H62.1328ZM71.3692 71.213L82.7368 58.7796L106.36 82.403C106.716 82.7583 107.071 82.9359 107.426 82.9359C107.781 82.9359 108.136 82.7583 108.492 82.403C109.025 81.8702 109.025 80.8044 108.492 80.2716L83.6249 55.4048C83.2697 55.0496 82.9145 54.8719 82.5592 54.8719C82.204 54.8719 81.6711 55.0496 81.4935 55.4048L69.2377 68.9039L44.5486 44.2147C44.3117 43.9779 44.0749 43.899 43.8381 43.82C43.7197 43.7806 43.6013 43.7411 43.4828 43.6819C43.1276 43.6819 42.5947 43.8595 42.4171 44.2147L9.37983 80.4492C8.84697 81.1597 8.84697 82.0478 9.55745 82.5806C10.2679 83.1135 11.156 83.1135 11.6889 82.403L43.4828 47.5895L106.36 110.467C106.716 110.822 107.071 111 107.426 111C107.781 111 108.136 110.822 108.492 110.467C109.025 109.934 109.025 108.868 108.492 108.336L71.3692 71.213ZM27.8524 100.165H71.5469C72.435 100.165 73.1454 100.698 73.5007 101.586C73.5007 102.474 72.7902 103.185 71.9021 103.185H28.2076C23.9447 103.185 20.3923 99.6324 20.3923 95.3695C20.3923 91.1066 24.1224 87.7318 27.6747 86.1333C30.8719 84.7123 34.6019 83.469 38.3319 82.2256C45.792 79.9166 54.8506 76.897 54.8506 73.5222C54.8506 69.9698 45.4367 64.9965 38.6872 62.5098C38.1543 62.3322 37.7991 61.977 37.6215 61.4441C37.4438 60.9112 37.6215 60.3784 37.9767 60.0231L42.5948 55.405C43.1277 54.8722 44.1934 54.8722 44.7263 55.405C45.2591 55.9379 45.2591 57.0036 44.7263 57.5365L41.7067 60.556C47.0353 62.6874 57.6925 67.8384 57.6925 73.6999C57.6925 79.0991 49.3241 81.9366 39.6208 85.2266C39.4285 85.2918 39.2357 85.3572 39.0424 85.4228C35.49 86.4885 31.76 87.7318 28.5628 89.1528C25.8986 90.2185 23.2343 92.7052 23.2343 95.5471C23.2343 98.0338 25.1881 100.165 27.8524 100.165Z" fill="white"/>
</svg>
