<svg width="120" height="120" viewBox="0 0 120 120" fill="none" xmlns="http://www.w3.org/2000/svg">
<path fill-rule="evenodd" clip-rule="evenodd" d="M108.671 34.9687C109.336 34.9687 110.002 35.4689 110.168 36.1359C110.667 38.3035 111 40.6378 111 42.8053C111 44.9729 110.834 47.1405 110.334 49.308C110.168 50.1417 109.503 50.6419 108.837 50.6419H106.84C106.175 52.9762 105.343 55.3105 104.012 57.4781L105.343 58.812C105.842 59.3122 105.842 60.1459 105.509 60.8128C103.013 64.6478 99.852 67.649 96.1914 70.1501C95.5258 70.6503 94.6939 70.4835 94.1947 69.9833L92.6972 68.8162C90.5341 69.9833 88.2047 70.9837 85.8752 71.6507V73.6515C85.8752 74.3185 85.2097 74.9854 84.5441 75.1521C82.3811 75.6523 80.218 75.8191 78.0549 75.8191C75.8919 75.8191 73.7288 75.6523 71.5658 75.1521C70.7338 74.9854 70.2346 74.3185 70.2346 73.6515V71.6507C67.9052 70.9837 65.5757 69.9833 63.4127 68.8162L62.0816 70.1501C61.5824 70.6503 60.7505 70.6503 60.0849 70.3168C56.2579 67.8158 53.2629 64.6478 50.7671 60.9796C50.2679 60.3126 50.4343 59.4789 50.9335 58.9787L52.2646 57.1446C51.0999 54.9771 50.1015 52.6428 49.436 50.3085H47.4393C46.7737 50.3085 46.1082 49.6415 45.9418 48.9746C45.4426 46.807 45.2762 44.6394 45.2762 42.4719C45.2762 40.3043 45.4426 38.1367 45.9418 35.9692C46.1082 35.3022 46.7737 34.802 47.4393 34.802H49.436C50.1015 32.4677 50.9335 30.1334 52.2646 27.9658L50.9335 26.6319C50.4343 26.1317 50.2679 25.298 50.7671 24.7978C53.2629 20.9629 56.4243 17.9616 60.0849 15.4606C60.7505 14.9604 61.5824 15.1271 62.0816 15.6273L63.4127 16.9612C65.5757 15.7941 67.9052 14.7937 70.2346 14.1267V12.1259C70.2346 11.4589 70.9002 10.792 71.5658 10.6253C75.8919 9.79158 80.3844 9.79158 84.7105 10.6253C85.5425 10.792 86.0416 11.4589 86.0416 12.1259V14.1267C88.3711 14.7937 90.7005 15.7941 92.8636 16.9612L94.1947 15.6273C94.6939 15.1271 95.5258 14.9604 96.025 15.4606C99.8519 17.9616 102.847 21.1296 105.343 24.7978C105.842 25.4648 105.676 26.2985 105.176 26.7987L103.845 28.1326C105.01 30.3001 106.008 32.6344 106.674 34.9687H108.671ZM105.509 47.4739H107.339C107.506 45.9733 107.672 44.306 107.506 42.6386C107.506 41.138 107.339 39.4706 107.173 37.97H105.343C104.677 37.97 104.012 37.4698 103.845 36.8028C103.346 33.9683 102.181 31.1338 100.518 28.6328C100.018 27.9658 100.185 27.1321 100.684 26.6319L102.181 25.298C100.351 22.6303 98.0217 20.4627 95.5258 18.6286L94.1947 19.9625C93.6955 20.4627 92.8636 20.4627 92.198 20.1292C89.7022 18.6286 86.8736 17.4614 84.045 16.7945C83.3794 16.6278 82.8802 15.9608 82.8802 15.2939V13.4598C79.8852 12.9596 76.7238 12.9596 73.5624 13.4598V15.4606C73.5624 16.1276 73.0633 16.7945 72.3977 16.9612C69.5691 17.6282 66.7405 18.6286 64.2446 20.296C63.5791 20.7962 62.7471 20.6294 62.248 20.1292L60.9168 18.7953C58.2546 20.6294 56.0916 22.9637 54.2613 25.4648L55.5924 26.7987C56.0915 27.2989 56.0916 28.1326 55.7588 28.7995C54.2613 31.3005 53.0965 34.1351 52.431 36.9696C52.2646 37.6365 51.599 38.1367 50.9335 38.1367H49.1032C48.9368 39.6373 48.7704 41.3047 48.7704 42.8053C48.7704 44.306 48.9368 45.9733 49.1032 47.4739H50.9335C51.599 47.4739 52.2646 47.9742 52.431 48.6411C53.0965 51.4756 54.0949 54.3101 55.7588 56.8112C56.2579 57.4781 56.0915 58.3118 55.5924 58.812L54.2613 60.1459C56.0916 62.8137 58.421 64.9812 60.9168 66.8153L62.248 65.4814C62.7471 64.9812 63.5791 64.9812 64.2446 65.3147C66.7405 66.8153 69.5691 67.9825 72.3977 68.6494C73.0633 68.8162 73.5624 69.4831 73.5624 70.1501V71.9842C76.5574 72.4844 79.7188 72.4844 82.8802 71.9842V70.1501C82.8802 69.4831 83.3794 68.8162 84.045 68.6494C86.8736 67.9825 89.7022 66.9821 92.198 65.3147C92.8636 64.8145 93.6955 64.9812 94.1947 65.4814L95.5258 66.8153C98.1881 64.9812 100.351 62.6469 102.181 60.1459L100.85 58.812C100.351 58.3118 100.351 57.4781 100.684 56.8112C102.181 54.3101 103.346 51.4756 104.012 48.6411C104.178 47.9742 104.844 47.4739 105.509 47.4739ZM17.3228 52.8096L17.4892 52.3094C16.99 51.9759 16.6572 51.6424 16.3245 51.309C15.8253 50.9755 15.4925 50.4753 15.1597 49.9751H14.6606C13.995 50.1418 13.1631 49.9751 12.8303 49.3081C11.6656 47.1406 11 44.8062 11 42.4719C11 41.805 11.4992 41.1381 12.1647 40.9713L12.6639 40.8046C12.6639 39.6374 12.9967 38.4703 13.4958 37.4699L13.1631 37.1364C12.6639 36.6362 12.6639 35.9692 12.9967 35.3023C13.6622 34.1351 14.3278 33.3015 15.1597 32.4678C15.9917 31.6341 16.8236 30.9671 17.9884 30.3002C18.4875 29.9667 19.3195 29.9667 19.8186 30.4669L20.1514 30.8004C20.3665 30.7388 20.5758 30.6773 20.7816 30.6168L20.7822 30.6166L20.7825 30.6165L20.7826 30.6165C21.6911 30.3493 22.5299 30.1026 23.4792 29.9667L23.6456 29.4665C23.812 28.7996 24.4775 28.2994 25.1431 28.2994C27.4725 28.2994 29.802 28.9663 31.7987 30.1335C32.2978 30.6337 32.6306 31.3006 32.4642 31.9676L32.2978 32.4678C32.797 32.8012 33.2962 33.3015 33.629 33.6349C34.1281 33.9684 34.4609 34.4686 34.7937 34.9688L34.7937 34.9688L35.2928 34.8021C36.1248 34.4686 36.7903 34.8021 37.1231 35.469C38.2879 37.6366 38.9534 39.9709 38.9534 42.3052C38.9534 42.9721 38.4542 43.6391 37.7887 43.8058L37.2895 43.9726C37.2895 45.1397 36.9567 46.3069 36.4576 47.3073L36.7903 47.6408C37.2895 48.141 37.2895 48.8079 36.9567 49.4749C36.2912 50.642 35.6256 51.4757 34.7937 52.3094C33.9617 53.1431 33.1298 53.81 31.9651 54.4769C31.4659 54.9772 30.6339 54.8104 30.1348 54.3102L29.802 53.9767C29.5883 54.0379 29.3801 54.0991 29.1755 54.1593L29.1754 54.1593L29.1728 54.1601L29.1716 54.1604L29.1708 54.1607C28.2623 54.4278 27.4235 54.6745 26.4742 54.8104L26.3078 55.3106C26.1414 55.9776 25.4759 56.4778 24.8103 56.4778C22.4809 56.4778 20.1514 55.8108 17.9884 54.6437C17.4892 54.1435 17.1564 53.4765 17.3228 52.8096ZM14.1614 43.6391C14.3278 44.6395 14.4942 45.6399 14.9933 46.6403H15.3261C15.9917 46.4736 16.6572 46.6403 17.1564 47.474C17.2602 47.6127 17.3568 47.7442 17.4492 47.8699L17.4494 47.8702L17.45 47.871L17.4502 47.8713C17.8017 48.3498 18.0925 48.7456 18.4875 49.1414C18.8825 49.5372 19.2775 49.8286 19.7549 50.1808L19.7551 50.181L19.7561 50.1817C19.8817 50.2744 20.013 50.3712 20.1514 50.4753C20.6506 50.8087 20.9834 51.4757 20.817 52.1426V52.4761C21.8153 52.9763 22.8136 53.1431 23.812 53.3098V52.6428C23.9784 51.9759 24.6439 51.4757 25.3095 51.4757C26.807 51.4757 28.1381 50.9755 29.4692 50.3085C30.1348 49.9751 30.8003 50.1418 31.2995 50.642L31.6323 50.9755C31.7987 50.8088 32.0067 50.642 32.2146 50.4753C32.4226 50.3085 32.6306 50.1418 32.797 49.9751C33.1298 49.6416 33.4626 49.3081 33.7953 48.8079L33.4626 48.4744C32.9634 47.9742 32.797 47.3073 33.1298 46.6403C33.7953 45.3065 34.2945 43.9726 34.2945 42.4719C34.2945 41.805 34.7937 41.1381 35.4592 40.9713L35.792 40.8046C35.6256 39.8042 35.4592 38.8037 34.9601 37.8033L34.6273 37.9701C33.9617 38.1368 33.2962 37.9701 32.9634 37.3031C32.8592 37.1639 32.7623 37.032 32.6696 36.9058C32.3181 36.4274 32.0273 36.0316 31.6323 35.6358C31.3988 35.2848 31.0016 35.016 30.5554 34.714L30.5554 34.714L30.5554 34.714L30.5554 34.714L30.5554 34.714L30.5553 34.714C30.3656 34.5855 30.167 34.4511 29.9684 34.3019C29.4692 33.9684 29.1364 33.3015 29.3028 32.6345V32.301C28.3045 31.8008 27.3062 31.6341 26.3078 31.4674L26.3078 31.4674L26.1414 31.8008C25.975 32.4678 25.3095 32.968 24.6439 32.968C23.1464 32.968 21.8153 33.4682 20.4842 34.1351C19.8186 34.4686 19.1531 34.3019 18.6539 33.8017L18.3211 33.4682C17.822 33.8017 17.4892 34.1351 17.1564 34.4686C16.8236 34.8021 16.4908 35.1356 16.1581 35.6358L16.4908 35.9692C16.99 36.4694 17.1564 37.1364 16.8236 37.8033C16.1581 39.1372 15.6589 40.4711 15.6589 41.9717C15.6589 42.6387 15.1597 43.3056 14.4942 43.4724L14.1614 43.6391ZM58.2546 87.4907L56.2579 86.9905C56.0915 85.6566 55.9251 84.3227 55.5924 83.1556L57.2562 81.9884C57.9218 81.4882 58.0882 80.8213 57.7554 80.1543C56.4243 76.9863 54.4276 74.1518 51.7654 71.9842C51.2662 71.484 50.4343 71.484 49.7687 71.9842L48.1048 73.1514C46.7737 72.151 45.2762 71.484 43.7787 70.9838V68.8162C43.7787 68.1493 43.2795 67.4824 42.614 67.3156C39.2862 66.4819 35.9584 66.4819 32.4642 67.3156C31.7987 67.4824 31.2995 68.1493 31.2995 68.8162V70.9838C31.0843 71.0763 30.8633 71.1687 30.6399 71.2622L30.6391 71.2625L30.6385 71.2628L30.6379 71.263C29.6527 71.6752 28.6186 72.1079 27.8053 72.6512L26.1414 71.3173C25.6423 70.8171 24.8103 70.8171 24.1448 71.3173C21.4825 73.3181 19.3195 76.1526 17.822 79.1539C17.4892 79.8208 17.6556 80.6545 18.3211 80.988L19.985 82.3219C19.4859 83.489 19.3195 84.8229 19.1531 86.1568L17.1564 86.657C16.4908 86.8238 15.9917 87.6574 15.9917 88.3244V88.6579C15.9917 91.8258 16.6572 94.9938 18.1547 97.9951C18.4875 98.662 19.1531 98.9955 19.8186 98.8288L21.6489 98.3285C22.3145 99.4957 23.1464 100.496 23.9784 101.497L22.98 103.331C22.6473 103.998 22.8136 104.831 23.3128 105.165C25.8087 107.332 28.9701 109 32.2978 109.667C32.9634 109.833 33.7953 109.5 34.1281 108.833L35.1265 106.999C36.4575 107.166 37.7886 107.166 39.1196 107.166H39.1198L39.9518 109C40.2845 109.5 40.7837 110 41.4493 110H41.782C45.1098 109.333 48.2712 107.999 50.9335 105.832C51.4326 105.331 51.7654 104.665 51.4326 103.998L50.6007 102.163C51.599 101.33 52.431 100.329 53.0965 99.1622L55.0932 99.6624C55.7587 99.8292 56.5907 99.4957 56.9235 98.8288C58.5874 95.8275 59.4193 92.4928 59.5857 88.9913C59.4193 88.3244 58.9201 87.6574 58.2546 87.4907ZM54.594 96.3277L52.5973 95.8275C51.9318 95.6608 51.2662 95.9942 50.9335 96.4944C49.9351 97.9951 48.9368 99.329 47.6057 100.496C47.1065 100.996 46.9401 101.663 47.1065 102.33L47.9384 104.164C46.1082 105.331 44.2779 106.165 42.2812 106.665L41.4493 104.831C41.1165 104.331 40.6173 103.831 39.9518 103.831H39.7854C38.1215 103.998 36.2912 103.998 34.6273 103.664C33.9617 103.497 33.2962 103.831 32.9634 104.498L32.1315 106.165C30.1348 105.498 28.3045 104.498 26.6406 103.331L27.4725 101.663C27.8053 100.996 27.6389 100.329 27.1398 99.8292C25.8087 98.662 24.8103 97.1614 23.9784 95.6608C23.6456 94.9938 22.98 94.6603 22.3145 94.8271L20.4842 95.1606C19.3195 93.3265 18.9867 91.3256 18.8203 89.3248L20.817 88.9913C21.4825 88.8246 21.9817 88.3244 21.9817 87.4907C22.1481 85.6566 22.4809 83.9892 23.1464 82.3219C23.4792 81.6549 23.3128 80.988 22.6473 80.4878L21.1498 79.3206C22.1481 77.4865 23.4792 75.8192 25.1431 74.4853L26.6406 75.6524C27.1398 76.1526 27.9717 76.1526 28.4709 75.6524C29.9684 74.652 31.4659 73.8183 33.1298 73.3181C33.7953 73.1514 34.2945 72.4844 34.2945 71.8175V69.9834C36.4576 69.6499 38.4542 69.6499 40.4509 69.9834V71.9842C40.4509 72.6512 40.9501 73.3181 41.6156 73.4849C43.6123 73.9851 45.4426 74.9855 46.9401 76.1526C47.4393 76.6528 48.2712 76.6528 48.7704 76.1526L50.2679 74.9855C51.7654 76.4861 53.0965 78.1535 53.9285 79.9876L52.2646 81.1547C51.7654 81.4882 51.4326 82.3219 51.7654 82.9888C52.431 84.6562 52.7637 86.3235 52.7637 88.1576C52.7637 88.8246 53.2629 89.4915 53.9285 89.6583L55.7587 90.1585C55.9251 92.326 55.426 94.3269 54.594 96.3277ZM28.3044 45.8066C27.4725 46.6403 26.1414 47.1405 24.9767 47.1405C23.8119 47.1405 22.6472 46.6403 21.6489 45.8066C19.8186 43.9725 19.8186 40.9712 21.6489 39.1371C23.4792 37.303 26.4742 37.303 28.3044 39.1371C29.1364 39.9708 29.6356 41.138 29.6356 42.4719C29.6356 43.8057 29.1364 44.9729 28.3044 45.8066ZM25.1431 40.8045C24.6439 40.8045 24.3111 40.9712 23.9783 41.3047C23.3128 41.8049 23.3128 42.8053 24.1447 43.639C24.6439 44.306 25.6422 44.306 26.3078 43.639C26.6406 43.3055 26.8069 42.8053 26.8069 42.4719C26.8069 41.9717 26.6406 41.6382 26.3078 41.3047C25.975 40.9712 25.6422 40.8045 25.1431 40.8045ZM37.4559 78.987C32.2978 78.987 28.1381 83.1554 28.1381 88.3242C28.1381 93.493 32.2978 97.6614 37.4559 97.6614C42.6139 97.6614 46.7737 93.493 46.7737 88.3242C46.9401 83.1554 42.6139 78.987 37.4559 78.987ZM37.4559 94.4934C33.9617 94.4934 31.2995 91.6589 31.2995 88.3242C31.2995 84.8228 34.1281 82.155 37.4559 82.155C40.95 82.155 43.6123 84.9895 43.6123 88.3242C43.7787 91.6589 40.95 94.4934 37.4559 94.4934ZM60.9168 42.8053C60.9168 33.3014 68.5707 25.6315 78.0549 25.6315C87.5391 25.6315 95.193 33.3014 95.193 42.8053C95.193 52.3093 87.5391 59.9792 78.0549 59.9792C68.5707 59.9792 60.9168 52.3093 60.9168 42.8053ZM64.0782 42.8053C64.0782 50.4752 70.2346 56.8112 78.0549 56.8112C85.8752 56.8112 92.0316 50.4752 92.0316 42.8053C92.0316 35.1355 85.8752 28.7995 78.0549 28.7995C70.401 28.7995 64.0782 35.1355 64.0782 42.8053Z" fill="white"/>
</svg>
