<svg width="120" height="120" viewBox="0 0 120 120" fill="none" xmlns="http://www.w3.org/2000/svg">
<path fill-rule="evenodd" clip-rule="evenodd" d="M94 23.3387C94 37.3226 88.4019 48.3452 81.1574 49.3323C79.5109 56.571 74.4068 62.4935 67.8208 65.2903V73.0226H70.9492C71.7724 73.0226 72.431 73.6806 72.431 74.5032V79.1097H86.2615C88.7312 79.1097 90.8717 81.0839 90.8717 83.7161V85.1968C90.8717 87.171 89.5545 88.8161 87.7433 89.4742V99.3452C89.5545 100.003 90.8717 101.648 90.8717 103.623V105.103C90.8717 107.571 88.7312 109.71 86.2615 109.71H33.7385C31.2688 109.71 29.1283 107.571 29.1283 105.103V103.623C29.1283 101.484 30.4455 99.8387 32.2567 99.1806V89.3097C30.4455 88.6516 29.1283 87.0065 29.1283 85.0323V83.3871C29.1283 80.9194 31.1041 78.7806 33.7385 78.7806H47.7337V74.1742C47.7337 73.3516 48.3923 72.6936 49.2155 72.6936H52.3438V64.9613C45.4286 62.329 40.3245 56.571 38.8426 49.3323C31.5981 48.3452 26 37.3226 26 23.3387V18.7323C26 17.9097 26.6586 17.2516 27.4818 17.0871H38.3487V12.4806C38.3487 11.6581 39.0073 11 39.8305 11H80.1695C80.9927 11 81.6513 11.6581 81.6513 12.4806V17.2516H92.5182C93.3414 17.2516 94 17.9097 94 18.7323V23.3387ZM90.8717 23.3387V20.3774H81.6513V45.0548C81.6513 45.2027 81.6181 45.3506 81.5814 45.5135C81.5366 45.7129 81.4867 45.9347 81.4867 46.2065C86.7555 44.5613 90.8717 34.8548 90.8717 23.3387ZM29.1283 20.2129V23.3387C29.1283 34.8548 33.2446 44.5613 38.5133 46.0419C38.5133 45.894 38.4801 45.7461 38.4434 45.5833C38.3986 45.3839 38.3487 45.162 38.3487 44.8903V20.2129H29.1283ZM41.477 14.1258V44.8903C41.477 55.0903 49.7094 63.4806 59.9177 63.6452C70.2906 63.6452 78.523 55.2548 78.523 45.0548V14.1258H41.477ZM84.615 98.8516V89.6387H35.2203V98.8516H84.615ZM86.2615 106.584C87.0847 106.584 87.7433 105.926 87.7433 105.103V103.623C87.7433 102.8 87.0847 102.142 86.2615 102.142H33.7385C32.9153 102.142 32.2567 102.8 32.2567 103.623V105.103C32.2567 105.926 32.9153 106.584 33.7385 106.584H86.2615ZM87.7433 85.0323V83.5516C87.7433 82.5645 87.0847 81.9065 86.2615 82.071H70.7845H49.2155H33.7385C32.9153 82.071 32.2567 82.729 32.2567 83.5516V85.0323C32.2567 85.8548 32.9153 86.5129 33.7385 86.5129H86.2615C87.0847 86.5129 87.7433 85.8548 87.7433 85.0323ZM69.3027 78.9452V75.8194H50.6973V78.9452H69.3027ZM55.3075 72.6936H64.5278V65.9484C63.046 66.2774 61.5642 66.4419 59.9177 66.4419C58.2712 66.4419 56.7893 66.2774 55.3075 65.9484V72.6936ZM66.6683 43.4096C66.339 43.5741 66.0097 43.7387 65.6804 43.7387C65.5981 43.7387 65.4746 43.6975 65.3511 43.6564C65.2276 43.6153 65.1041 43.5741 65.0218 43.5741L60.0823 40.9419L55.1429 43.5741C54.6489 43.7387 53.9903 43.7387 53.4964 43.4096C53.0024 43.0806 52.6731 42.587 52.8378 41.929L53.8257 36.3354L49.7094 32.387C49.3801 31.8935 49.2155 31.2354 49.3801 30.7419C49.7094 30.2483 50.0387 29.7548 50.6973 29.7548L56.2954 28.9322L58.7651 23.8322C58.9298 23.3387 59.5884 23.0096 60.0823 23.0096C60.5763 23.0096 61.0702 23.3387 61.3995 23.8322L63.8693 28.9322L69.4673 29.7548C70.1259 29.7548 70.6199 30.2483 70.7845 30.7419C70.9492 31.3999 70.9492 32.058 70.4552 32.387L66.339 36.3354L67.3269 41.929C67.3269 42.4225 67.1622 43.0806 66.6683 43.4096ZM60.0823 37.6516C60.247 37.6516 60.5763 37.6516 60.7409 37.8161L63.3753 39.2967L62.8814 36.0064C62.8814 35.5128 63.046 35.0193 63.3753 34.6903L65.845 32.387L62.5521 31.8935C62.0581 31.8935 61.5642 31.5645 61.3995 31.0709L59.9177 28.1096L58.4358 31.0709C58.2712 31.5645 57.7772 31.8935 57.2833 31.8935L53.9903 32.387L56.4601 34.6903C56.954 35.0193 56.954 35.5128 56.954 36.0064L56.4601 39.2967L59.4237 37.8161C59.5884 37.6516 59.9177 37.6516 60.0823 37.6516Z" fill="white"/>
</svg>
