<svg width="120" height="120" viewBox="0 0 120 120" fill="none" xmlns="http://www.w3.org/2000/svg">
<path fill-rule="evenodd" clip-rule="evenodd" d="M109.708 16.5654C110.375 16.5654 110.875 17.0654 111.042 17.5654C111.208 18.0654 111.042 18.7321 110.542 18.8987L101.208 28.2321C101.208 28.3987 101.042 28.5654 100.875 28.5654C100.708 28.7321 99.0416 29.5654 96.7083 29.5654C94.875 29.5654 93.3749 29.0654 92.0416 28.2321L64.375 55.8987L66.875 58.5654C67.2083 58.8987 67.375 59.5654 67.2083 60.0654C67.0416 60.7321 66.5416 61.0654 66.0416 61.2321L56.7083 63.5654H56.375C55.875 63.5654 55.5416 63.3987 55.2083 63.0654C54.875 62.7321 54.7083 62.0654 54.875 61.5654L57.2083 52.2321C57.375 51.5654 57.875 51.2321 58.375 51.0654C58.875 50.8987 59.5416 51.0654 59.875 51.3987L62.2083 53.7321L89.8749 26.0654C87.0416 22.0654 89.2083 17.3987 89.3749 17.2321C89.3749 17.2321 89.5416 17.0654 89.7083 16.7321L99.0416 7.39872C99.5416 7.06538 100.208 6.89872 100.708 7.06538C101.208 7.39872 101.708 7.73205 101.708 8.39872L102.708 15.3987L109.708 16.5654ZM59.5416 55.3987L58.5416 59.5654L62.7083 58.5654L59.5416 55.3987ZM99.8749 20.3987L104.208 21.0654L106.208 19.0654L101.875 18.3987L99.8749 20.3987ZM97.0416 13.8987L97.7083 18.2321L99.5416 16.2321L99.0416 11.8987L97.0416 13.8987ZM94.3749 16.5654L92.0416 18.8987C91.7083 19.5654 91.0416 21.7321 92.2083 23.7321L95.0416 20.8987L94.3749 16.5654ZM96.5416 26.5654C97.7083 26.5654 98.7083 26.232 99.2083 26.0654L101.375 23.8987L97.0416 23.2321L94.2083 26.0654C94.875 26.3987 95.7083 26.5654 96.5416 26.5654ZM19.2083 104.566C18.7083 105.232 18.7083 106.232 19.375 106.732C19.7083 106.899 20.0417 107.066 20.375 107.066C20.875 107.066 21.2083 106.899 21.5417 106.566L26.7083 100.232C25.875 99.5655 25.0417 98.8988 24.375 98.2322L19.2083 104.566ZM88.2083 98.2322C87.375 98.8988 86.5417 99.5655 85.875 100.232L91.0417 106.566C91.375 106.899 91.875 107.066 92.2083 107.066C92.5416 107.066 92.8749 106.899 93.2082 106.732L93.2083 106.732L93.2083 106.732C93.875 106.232 94.0417 105.232 93.375 104.566L88.2083 98.2322ZM52.7083 56.732L53.7083 52.8987C52.2083 53.232 50.875 54.0653 49.7083 55.232C47.875 57.0653 47.0416 59.3987 47.0416 61.8987C47.0416 64.3987 48.0416 66.732 49.7083 68.5653C51.5416 70.3987 53.875 71.232 56.375 71.232C58.875 71.232 61.2083 70.232 63.0416 68.5653C64.2083 67.3987 64.875 66.0653 65.375 64.5653L61.375 65.3987C61.2083 65.732 61.0416 66.0653 60.875 66.232C58.5416 68.5653 54.375 68.5653 52.0416 66.232C50.875 65.0653 50.2083 63.3987 50.2083 61.732C50.2083 60.0653 50.875 58.5653 52.0416 57.232C52.125 57.1487 52.25 57.0653 52.375 56.982C52.5 56.8987 52.625 56.8153 52.7083 56.732ZM67.0416 44.3987L64.7083 46.732C62.2083 45.3987 59.375 44.5653 56.375 44.5653C51.7083 44.5653 47.375 46.3987 44.2083 49.5653C37.5416 56.232 37.5416 67.232 44.2083 73.8987C47.5416 77.0653 51.7083 78.8987 56.375 78.8987C61.0416 78.8987 65.375 77.0653 68.5416 73.8987C71.7083 70.5653 73.5416 66.3987 73.5416 61.732C73.5416 58.732 72.7083 55.8987 71.375 53.3987L73.7083 51.0653C75.5416 54.232 76.7083 57.8987 76.7083 61.732C76.7083 67.0653 74.5416 72.232 70.7083 76.0654C66.875 79.8987 61.875 82.0654 56.375 82.0654C51.0416 82.0654 45.875 79.8987 42.0416 76.0654C34.2083 68.232 34.2083 55.3987 42.0416 47.3987C45.875 43.5653 50.875 41.3987 56.375 41.3987C60.2083 41.3987 63.875 42.3987 67.0416 44.3987ZM76.0417 35.5654C70.375 31.3988 63.5417 29.0654 56.375 29.0654C47.5417 29.0654 39.375 32.3988 33.2084 38.7321C20.375 51.5654 20.375 72.3988 33.2084 85.0654C39.375 91.2321 47.7084 94.7321 56.375 94.7321C65.2084 94.7321 73.375 91.3988 79.5417 85.0654C91.2084 73.3988 92.2084 55.0654 82.5417 42.2321L80.2084 44.5654C88.5417 56.2321 87.7084 72.3988 77.2084 82.8988C71.5417 88.5654 64.2084 91.5654 56.2084 91.5654C48.2084 91.5654 40.875 88.3988 35.2084 82.8988C23.7084 71.3988 23.7084 52.5654 35.2084 40.8988C40.875 35.2321 48.2084 32.2321 56.2084 32.2321C62.5417 32.2321 68.5417 34.2321 73.5417 37.8988L76.0417 35.5654ZM98.5417 61.732C98.5417 52.0653 95.375 42.8987 89.375 35.3987L91.5417 33.232C98.2083 41.232 101.708 51.232 101.708 61.732C101.708 73.732 96.875 85.232 88.375 93.732C79.875 102.399 68.5417 107.065 56.375 107.065C44.375 107.065 32.875 102.232 24.375 93.732C6.54167 76.0654 6.54167 47.3987 24.375 29.732C32.875 21.0653 44.2083 16.3987 56.375 16.3987C66.875 16.3987 76.875 20.0653 84.875 26.5653L82.7083 28.732C75.2083 22.8987 66.0417 19.5653 56.375 19.5653C45.0417 19.5653 34.5417 23.8987 26.5417 31.8987C10.0417 48.3987 10.0417 75.0654 26.5417 91.5654C34.5417 99.5654 45.0417 103.899 56.375 103.899C67.7083 103.899 78.2083 99.5654 86.2083 91.5654C94.2083 83.5654 98.5417 73.0653 98.5417 61.732Z" fill="white"/>
</svg>
