<svg width="120" height="120" viewBox="0 0 120 120" fill="none" xmlns="http://www.w3.org/2000/svg">
<path fill-rule="evenodd" clip-rule="evenodd" d="M15.5733 20H104.427C106.877 20 109 22.1399 109 24.6091V83.2099C109 85.679 106.877 87.8189 104.427 87.8189H69.1467V97.037H72.25C73.0667 97.037 73.72 97.6955 73.72 98.5185C73.72 99.3416 73.0667 100 72.25 100H67.6767H52.3233H47.75C46.9333 100 46.28 99.3416 46.28 98.5185C46.28 97.6955 46.9333 97.037 47.75 97.037H50.8533V87.8189H15.5733C13.1233 87.8189 11 85.8436 11 83.2099V24.6091C11 22.1399 13.1233 20 15.5733 20ZM53.9567 97.2017H66.2067V87.9835H53.9567V97.2017ZM104.427 84.6914C105.243 84.6914 105.897 84.0329 105.897 83.2099V24.6091C105.897 23.786 105.243 23.1276 104.427 23.1276H15.5733C14.7567 23.1276 14.1033 23.786 14.1033 24.6091V83.2099C14.1033 84.0329 14.7567 84.6914 15.5733 84.6914H52.3233H67.6767H104.427ZM36.9699 55.5557C36.9699 58.0248 35.0099 60.1647 32.3966 60.1647C29.9466 60.1647 27.8232 58.0248 27.8232 55.2265C27.8232 52.7573 29.7832 50.6174 32.3966 50.6174C33.7032 50.6174 34.8466 51.2758 35.6632 52.0989L41.5432 49.4651V49.1359C41.5432 46.6668 43.5032 44.5269 46.1166 44.5269C48.5666 44.5269 50.6899 46.6668 50.6899 49.1359L56.4066 51.1112C57.2232 49.959 58.5299 49.3005 59.9999 49.3005C60.9799 49.3005 61.6332 49.6297 62.4499 50.4528L69.4732 44.8561C69.3099 44.3623 69.1466 43.8684 69.1466 43.3746C69.1466 40.9055 71.1066 38.7656 73.7199 38.7656C75.3532 38.7656 76.6599 39.5886 77.4766 40.9055L83.0299 39.7532C83.1932 37.4487 85.1532 35.638 87.4399 35.638C89.8899 35.638 92.0132 37.6133 92.0132 40.247C92.0132 42.7162 89.8899 44.8561 87.4399 44.8561C85.8066 44.8561 84.4999 44.033 83.6833 42.7162L78.1299 43.8684C77.9666 46.173 76.0066 47.9837 73.7199 47.9837C72.7399 47.9837 71.9232 47.6544 71.2699 47.1606L64.2466 52.7573L64.2466 52.7574C64.4099 53.2512 64.5732 53.745 64.5732 54.2388C64.5732 56.7079 62.4499 58.8479 59.9999 58.8479C57.5499 58.8479 55.4266 56.7079 55.4266 54.2388L49.7099 52.2635C48.8932 53.4158 47.5866 54.0742 46.1166 54.0742C44.8099 54.0742 43.6666 53.4158 42.8499 52.5927L36.9699 55.2265V55.5557ZM89.0732 39.9178C89.0732 39.0948 88.4199 38.4363 87.6032 38.4363C86.7866 38.4363 85.9699 39.2594 86.1332 39.9178C86.1332 40.7409 86.7866 41.3993 87.6032 41.3993C88.4199 41.3993 89.0732 40.7409 89.0732 39.9178ZM75.1899 43.0454C75.1899 42.2223 74.5366 41.5639 73.7199 41.5639C72.9032 41.5639 72.2499 42.2223 72.2499 43.0454C72.2499 43.8684 72.9032 44.5269 73.7199 44.5269C74.5366 44.5269 75.1899 43.8684 75.1899 43.0454ZM61.4699 53.9096C61.4699 53.0865 60.8166 52.4281 59.9999 52.4281C59.1832 52.4281 58.5299 53.0865 58.5299 53.9096C58.5299 54.7326 59.1832 55.3911 59.9999 55.3911C60.8166 55.3911 61.4699 54.7326 61.4699 53.9096ZM47.7499 49.3005C47.7499 48.4775 47.0966 47.819 46.2799 47.819C45.2999 47.819 44.6466 48.4775 44.8099 49.3005C44.8099 50.1236 45.4632 50.782 46.2799 50.782C47.0966 50.782 47.7499 50.1236 47.7499 49.3005ZM33.8666 55.3911C33.8666 54.568 33.2132 53.9096 32.3966 53.9096C31.5799 53.9096 30.9266 54.568 30.9266 55.3911C30.9266 56.2141 31.5799 56.8725 32.3966 56.8725C33.2132 56.8725 33.8666 56.2141 33.8666 55.3911ZM101.323 26.2553H18.6768C17.8601 26.2553 17.2068 26.9137 17.2068 27.7368V80.247C17.2068 81.0701 17.8601 81.7285 18.6768 81.7285H101.323C102.14 81.7285 102.793 81.0701 102.793 80.247V27.7368C102.957 26.9137 102.14 26.2553 101.323 26.2553ZM99.6901 78.601H20.1468V29.2182H99.6901V78.601ZM29.2933 72.5102H27.8233C27.0067 72.5102 26.3533 71.8517 27.0067 70.8641C27.0067 70.041 27.66 69.3826 28.4767 69.3826V64.7735C28.4767 63.9505 29.13 63.2921 29.9467 63.2921H36.1533C36.97 63.2921 37.6233 63.9505 37.6233 64.7735V69.3826H42.1967V58.5184C42.1967 57.6953 42.85 57.0369 43.6667 57.0369H49.8733C50.69 57.0369 51.3433 57.6953 51.3433 58.5184V69.3826H55.9167V63.1274C55.9167 62.3044 56.57 61.646 57.3867 61.646H63.43C64.2467 61.646 64.9 62.3044 64.9 63.1274V69.3826H69.4733V52.4279C69.4733 51.6048 70.1267 50.9464 70.9433 50.9464H76.9867C77.8033 50.9464 78.4566 51.6048 78.4566 52.4279V69.3826H83.03V49.3003C83.03 48.4772 83.6833 47.8188 84.5 47.8188H90.7066C91.5233 47.8188 92.1767 48.4772 92.1767 49.3003V69.5472C92.9933 69.5472 93.6467 70.2056 93.6467 71.0287C93.6467 71.8517 92.9933 72.5102 92.1767 72.5102H90.7066H84.5H76.8233H70.78H63.1033H57.06H49.3833H43.1767H35.5H29.2933ZM89.0733 50.7818H85.97V69.3826H89.0733V50.7818ZM75.3533 53.9093H72.25V69.3826H75.3533V53.9093ZM61.6333 64.7735H58.53V69.3826H61.6333V64.7735ZM47.75 60.1645H44.6467V69.3826H47.75V60.1645ZM34.03 66.255H30.9267V69.3826H34.03V66.255Z" fill="white"/>
</svg>
