<svg width="306" height="108" viewBox="0 0 306 108" fill="none" xmlns="http://www.w3.org/2000/svg">
<path fill-rule="evenodd" clip-rule="evenodd" d="M267.781 10.1916H264.217L258.907 36.3986H262.366L284.026 15.2527L279.659 36.3986H283.327L288.602 10.1916H285.179L263.519 31.3374L267.781 10.1916ZM270.645 1.28262C270.645 2.84255 271.204 4.09051 272.392 4.9918C273.58 5.92777 275.187 6.37842 277.178 6.37842C279.414 6.37842 281.266 5.82377 282.768 4.71448C284.27 3.60519 285.248 2.01059 285.668 0H283.152C282.803 1.31728 282.139 2.39191 281.091 3.15454C280.078 3.95184 278.82 4.33316 277.388 4.33316C276.095 4.33316 275.082 4.02117 274.314 3.36253C273.58 2.70389 273.196 1.87193 273.196 0.797302V0.796395C273.196 0.450226 273.196 0.20781 273.231 0H270.785C270.68 0.415984 270.645 0.866633 270.645 1.28262ZM14.3236 30.9562L36.1583 1.56004H32.3503L15.0921 25.0631L7.58101 1.56004H3.70316L12.5418 28.1137L11.0396 29.9163C9.0483 32.5162 6.81242 33.7988 4.36694 33.7988C3.45862 33.7988 2.48042 33.5561 1.36248 33.1401L0 36.0173C1.43236 36.676 2.86471 37.0226 4.332 37.0226C8.03517 37.0226 11.354 35.0121 14.3236 30.9562ZM30.6384 31.3722C31.6166 33.0361 33.014 34.3534 34.8656 35.2547C36.6822 36.1907 38.8482 36.6413 41.3636 36.6067C43.6344 36.6067 45.7655 36.156 47.7219 35.2894C49.6782 34.3881 51.2154 33.1748 52.4032 31.6149L49.8529 29.6736C48.9097 30.8869 47.7219 31.8228 46.2546 32.4815C44.7873 33.1401 43.2152 33.4521 41.5033 33.4521C38.7085 33.4521 36.5425 32.7241 35.0053 31.3029C33.5031 29.8816 32.7345 27.9057 32.7345 25.3404C32.7345 22.9832 33.2236 20.9033 34.2018 19.0314C35.18 17.1941 36.5774 15.7381 38.3242 14.6635C40.1059 13.5889 42.0623 13.0689 44.2283 13.0689C47.8616 13.0689 50.4119 14.3515 51.9141 16.9514L54.9186 15.2182C53.9404 13.4849 52.5779 12.1676 50.8311 11.301C49.0843 10.4344 46.9882 9.98371 44.5427 9.98371C41.6081 9.98371 38.953 10.6423 36.6124 11.9943C34.2717 13.3462 32.4201 15.1835 31.1275 17.5407C29.8349 19.898 29.1711 22.5672 29.1711 25.5138C29.1711 27.7323 29.6602 29.7083 30.6384 31.3722ZM69.871 23.087L78.3603 36.3638H74.3078L67.0762 24.7163H60.8577L58.517 36.3638H54.9535L60.2637 10.1915H63.8272L61.4865 21.7004H67.3557L78.9892 10.1915H83.0068L69.871 23.087ZM81.5743 31.3722C82.5525 33.0361 83.9499 34.3534 85.7666 35.2547C87.5832 36.1907 89.6793 36.6413 92.1248 36.6067C95.0594 36.6067 97.6446 35.948 99.9853 34.5961C102.326 33.2441 104.143 31.3722 105.435 29.015C106.728 26.6577 107.392 23.9885 107.392 21.0419C107.392 17.6447 106.309 14.9408 104.143 12.9649C101.977 10.989 99.0421 9.98371 95.3738 9.98371C92.4392 9.98371 89.854 10.6423 87.5133 11.9943C85.1727 13.3462 83.356 15.1835 82.0634 17.5407C80.7708 19.898 80.107 22.5672 80.107 25.5138C80.107 27.7323 80.5961 29.7083 81.5743 31.3722ZM102.291 27.559C101.313 29.4309 99.9504 30.8869 98.2036 31.9268C96.4918 32.9668 94.5354 33.4868 92.3344 33.5214C89.6095 33.5214 87.4784 32.7935 85.9412 31.3722C84.439 29.9509 83.6704 27.975 83.6704 25.4098C83.6704 23.0872 84.1595 20.9726 85.1377 19.1007C86.1159 17.2288 87.4784 15.7728 89.2252 14.6982C90.972 13.6236 92.9283 13.1036 95.0943 13.1036C97.8193 13.1036 99.9504 13.7969 101.488 15.2528C102.99 16.7088 103.758 18.6847 103.758 21.2499C103.758 23.5725 103.269 25.6871 102.291 27.559ZM133.454 11.3355C135.2 12.2368 136.563 13.5194 137.541 15.1834C138.519 16.8473 139.008 18.7886 139.008 21.0418C139.008 23.9883 138.379 26.6576 137.087 29.0148C135.794 31.3721 134.012 33.244 131.742 34.5959C129.471 35.9479 126.921 36.6065 124.056 36.6065C121.541 36.6065 119.444 36.1212 117.733 35.1506C116.021 34.1799 114.798 32.7587 114.029 30.8867L111.025 46.0355H107.462L114.623 10.1916H118.047L117.209 14.3861C118.466 12.9648 119.968 11.8555 121.715 11.1275C123.462 10.3649 125.383 10.0182 127.48 10.0182C129.715 10.0182 131.707 10.4689 133.454 11.3355ZM129.855 31.9267C131.567 30.8867 132.93 29.4308 133.908 27.5589C134.886 25.6869 135.375 23.607 135.375 21.2498C135.375 18.6846 134.606 16.7086 133.104 15.2527C131.567 13.7968 129.436 13.1034 126.711 13.1034C124.545 13.1034 122.589 13.6234 120.877 14.6634C119.165 15.7033 117.802 17.1593 116.824 19.0312C115.846 20.9031 115.357 23.0177 115.357 25.375C115.357 27.9402 116.126 29.9161 117.628 31.3374C119.165 32.7587 121.296 33.4866 124.021 33.4866C126.187 33.4866 128.108 32.9667 129.855 31.9267ZM162.695 31.7188C163.708 30.1935 164.232 28.4256 164.232 26.4497C164.232 21.7699 161.262 19.4126 155.358 19.4126H147.917L149.699 10.3303H146.135L140.86 36.4333H151.9C154.345 36.4333 156.511 36.0173 158.363 35.22C160.249 34.388 161.682 33.2441 162.695 31.7188ZM160.668 26.727C160.668 28.8416 159.865 30.5055 158.258 31.7881C156.651 33.0707 154.555 33.6947 151.969 33.6947H145.087L147.393 22.0472H154.31C156.441 22.0472 158.048 22.4632 159.096 23.2258C160.144 23.9884 160.668 25.1671 160.668 26.727ZM182.049 35.2547C180.197 34.3534 178.8 33.0361 177.822 31.3722C176.844 29.7083 176.354 27.7323 176.354 25.5138C176.354 22.5672 177.018 19.898 178.311 17.5407C179.603 15.1835 181.455 13.3462 183.796 11.9943C186.136 10.6423 188.791 9.98371 191.726 9.98371C194.172 9.98371 196.268 10.4344 198.014 11.301C199.761 12.1676 201.124 13.4849 202.102 15.2182L199.097 16.9514C197.595 14.3515 195.045 13.0689 191.412 13.0689C189.246 13.0689 187.289 13.5889 185.508 14.6635C183.761 15.7381 182.363 17.1941 181.385 19.0314C180.407 20.9033 179.918 22.9832 179.918 25.3404C179.918 27.9057 180.686 29.8816 182.189 31.3029C183.726 32.7241 185.892 33.4521 188.687 33.4521C190.398 33.4521 191.971 33.1401 193.438 32.4815C194.905 31.8228 196.093 30.8869 197.036 29.6736L199.587 31.6149C198.399 33.1748 196.862 34.3881 194.905 35.2894C192.949 36.156 190.818 36.6067 188.547 36.6067C186.032 36.6413 183.9 36.1907 182.049 35.2547ZM222.819 34.2146C224.88 32.7586 225.893 30.7827 225.893 28.2175C225.893 25.3749 224.426 23.607 221.526 22.9137C223.378 22.3591 224.81 21.4924 225.858 20.3138C226.906 19.1005 227.43 17.6792 227.43 16.0153C227.43 14.1087 226.697 12.6874 225.264 11.6821C223.832 10.6768 221.701 10.1915 218.941 10.1915H207.447L202.137 36.3638H214.329C217.928 36.3638 220.758 35.6705 222.819 34.2146ZM222.399 28.1482C222.399 29.8468 221.701 31.1987 220.303 32.1693C218.906 33.1053 216.984 33.5906 214.504 33.6599H206.189L208.041 24.543H216.88C218.836 24.543 220.268 24.8203 221.107 25.3749C221.98 25.9296 222.399 26.8655 222.399 28.1482ZM216.391 21.8391H208.53L210.347 12.9648H218.242C221.91 12.9648 223.762 14.178 223.762 16.6046C223.762 18.1646 223.098 19.4125 221.736 20.3831C220.373 21.3538 218.591 21.8391 216.391 21.8391ZM235.395 35.2547C233.579 34.3534 232.181 33.0361 231.203 31.3722C230.225 29.7083 229.736 27.7323 229.736 25.5138C229.736 22.5672 230.4 19.898 231.692 17.5407C232.985 15.1835 234.801 13.3462 237.142 11.9943C239.483 10.6423 242.068 9.98371 245.003 9.98371C248.671 9.98371 251.605 10.989 253.771 12.9649C255.937 14.9408 257.02 17.6447 257.02 21.0419C257.02 23.9885 256.357 26.6577 255.064 29.015C253.771 31.3722 251.955 33.2441 249.614 34.5961C247.273 35.948 244.688 36.6067 241.754 36.6067C239.308 36.6413 237.177 36.1907 235.395 35.2547ZM247.832 31.9268C249.579 30.8869 250.942 29.4309 251.92 27.559C252.898 25.6871 253.387 23.5725 253.387 21.2499C253.387 18.6847 252.619 16.7088 251.116 15.2528C249.579 13.7969 247.448 13.1036 244.723 13.1036C242.557 13.1036 240.601 13.6236 238.854 14.6982C237.107 15.7728 235.745 17.2288 234.767 19.1007C233.788 20.9726 233.299 23.0872 233.299 25.4098C233.299 27.975 234.068 29.9509 235.57 31.3722C237.107 32.7935 239.238 33.5214 241.963 33.5214C244.129 33.4868 246.086 32.9668 247.832 31.9268ZM13.6249 54.7713H51.9142L50.936 59.4511H18.0617L14.7079 76.4371H31.8263C37.2063 76.4371 41.2938 77.5117 44.0188 79.6956C46.7787 81.8795 48.1412 85.1034 48.1412 89.4366C48.1412 94.879 46.045 99.1082 41.8877 102.159C37.7304 105.209 31.966 106.735 24.5597 106.735H3.17917L13.6249 54.7713ZM25.3283 102.367C30.7083 102.367 34.9006 101.257 37.94 99.0735C40.9445 96.855 42.4816 93.8044 42.4816 89.8179C42.4816 86.698 41.4685 84.4101 39.4073 82.9888C37.3461 81.5676 34.132 80.8396 29.6952 80.8396H13.7996L9.46756 102.367H25.3283ZM69.0676 54.7713H63.6875L53.2418 106.735H58.2376L100.51 63.7496L91.7407 106.735H97.1208L107.601 54.7713H102.606L60.4036 97.8256L69.0676 54.7713ZM144.982 83.7166C146.519 85.5886 147.253 87.8765 147.253 90.5457C147.253 93.8042 146.135 96.7161 143.934 99.316C141.698 101.881 138.799 103.892 135.131 105.278C131.497 106.7 127.689 107.393 123.672 107.393C120.143 107.393 116.754 106.804 113.54 105.66C110.326 104.481 107.566 102.783 105.261 100.495L108.09 96.5775C109.977 98.5534 112.318 100.044 115.078 101.015C117.837 102.02 120.737 102.505 123.776 102.505C126.886 102.505 129.785 101.985 132.545 100.98C135.27 99.9747 137.506 98.5187 139.218 96.6468C140.93 94.7749 141.768 92.591 141.768 90.1297C141.768 87.4951 140.755 85.5192 138.729 84.1326C136.703 82.746 133.768 82.0527 129.925 82.0527H118.536L119.444 77.6155H130.589C134.676 77.6155 137.96 76.7142 140.406 74.877C142.851 73.0397 144.074 70.6478 144.074 67.6666C144.074 64.8587 142.956 62.6748 140.72 61.1842C138.484 59.6589 135.515 58.9309 131.882 58.9309C129.436 58.9309 126.886 59.2776 124.161 60.0056C121.471 60.7335 118.816 61.8082 116.23 63.2294L115.252 58.6883C121.121 55.6724 126.921 54.1471 132.615 54.1471C137.611 54.1471 141.733 55.2564 144.947 57.5097C148.196 59.7629 149.803 62.8481 149.803 66.7653C149.803 69.8505 148.79 72.5197 146.729 74.8077C144.668 77.0956 141.908 78.7248 138.414 79.6608C141.314 80.4928 143.445 81.8447 144.982 83.7166ZM197.141 106.735L207.622 54.7713H202.172L197.525 77.8584H164.756L169.402 54.7713H163.952L153.472 106.735H158.922L163.708 82.8155H196.477L191.691 106.735H197.141ZM225.369 59.5204L221.631 77.997H248.776L247.867 82.6768H220.723L216.845 101.985H248.357L247.378 106.735H210.417L220.897 54.7713H256.811L255.833 59.5204H225.369ZM258.383 96.9241C260.304 100.148 263.099 102.679 266.802 104.481C270.506 106.284 274.907 107.185 279.938 107.22C284.095 107.22 287.938 106.561 291.467 105.278C295.03 103.996 297.93 102.193 300.236 99.8013L297.022 96.1614C292.794 100.287 287.275 102.332 280.427 102.332C274.209 102.332 269.388 100.807 266.034 97.7214C262.645 94.6362 260.968 90.511 260.968 85.3112C260.968 80.5621 262.051 76.1942 264.182 72.2424C266.313 68.2905 269.353 65.136 273.3 62.7788C277.248 60.4215 281.79 59.2429 286.925 59.2429C293.703 59.2429 298.768 61.2882 302.122 65.344L306 61.9121C304.253 59.4856 301.773 57.6136 298.524 56.2964C295.275 54.9791 291.572 54.3204 287.379 54.3204C281.021 54.3204 275.431 55.707 270.61 58.5149C265.789 61.3228 262.051 65.1013 259.431 69.8505C256.811 74.5996 255.518 79.8341 255.518 85.5885C255.518 89.9217 256.461 93.7002 258.383 96.9241Z" fill="#ADA3B9"/>
</svg>
