<svg width="482" height="150" viewBox="0 0 482 150" fill="none" xmlns="http://www.w3.org/2000/svg">
<path d="M23.3713 145.808H0L19.0256 37.7786H41.231L39.4821 47.8599H39.9061C42.6089 44.1457 46.0537 41.2274 50.2403 39.1581C54.374 37.0357 58.8787 36.0276 63.7544 36.0276C68.524 36.0276 72.8167 36.8235 76.6324 38.3622C80.4482 39.9009 83.6279 42.0764 86.2777 44.8886C88.9275 47.6477 90.8884 50.9905 92.2663 54.8638C93.6442 58.7372 94.3331 62.8758 94.3331 67.3859C94.3331 73.647 93.3262 79.5366 91.3124 85.0548C89.2985 90.5731 86.4897 95.4015 82.886 99.4871C79.2822 103.573 74.9895 106.809 70.1139 109.197C65.1853 111.585 59.7797 112.805 53.9501 112.805C48.5975 112.805 43.9338 111.797 40.0651 109.781C36.1434 107.764 33.2286 105.058 31.2677 101.663H30.9497L23.3713 145.808ZM70.9088 70.4103C70.9088 66.0064 69.6369 62.3452 67.0931 59.3739C64.5493 56.4026 60.8396 54.9169 55.9639 54.9169C53.0491 54.9169 50.2933 55.5536 47.7495 56.827C45.2057 58.1005 43.0329 59.7984 41.178 61.9738C39.3231 64.0962 37.8392 66.59 36.7793 69.4553C35.7194 72.2674 35.1894 75.2388 35.1894 78.3693C35.1894 82.8794 36.5673 86.5405 39.2701 89.4057C41.973 92.271 45.7357 93.7036 50.5053 93.7036C53.6321 93.7036 56.4409 93.1199 58.9317 91.8995C61.4225 90.6792 63.5424 89.0343 65.2913 86.9119C67.0401 84.7895 68.418 82.3488 69.372 79.5366C70.4319 76.6183 70.9088 73.5939 70.9088 70.4103Z" fill="white"/>
<path d="M93.6972 110.683L113.147 0H136.995L117.386 110.683H93.6972Z" fill="white"/>
<path d="M176.636 100.124C174.41 103.626 171.284 106.597 167.362 108.985C163.387 111.372 158.882 112.593 153.848 112.593C149.873 112.593 146.375 111.956 143.461 110.789C140.546 109.568 138.108 107.924 136.2 105.907C134.292 103.838 132.914 101.503 132.013 98.7973C131.113 96.0913 130.689 93.3321 130.689 90.3608C130.689 89.0874 130.742 87.8139 130.848 86.4874C130.954 85.1609 131.165 83.8344 131.43 82.4549L139.168 37.7785H162.698L155.703 77.3081C155.491 78.3693 155.385 79.4305 155.279 80.4386C155.173 81.4468 155.12 82.4549 155.12 83.463C155.12 86.116 155.809 88.3976 157.24 90.3608C158.671 92.324 161.161 93.2791 164.765 93.2791C166.885 93.2791 168.846 92.8546 170.542 91.9526C172.238 91.0506 173.721 89.8833 174.993 88.4506C176.265 86.965 177.325 85.2671 178.226 83.3039C179.127 81.3406 179.71 79.3244 180.134 77.1489L187.129 37.7785H210.554L200.325 95.6137C199.954 97.4708 199.531 99.8585 199.107 102.777C198.683 105.695 198.365 108.348 198.153 110.683H175.947C176.053 109.515 176.212 107.817 176.477 105.642C176.742 103.467 176.954 101.609 177.113 100.177H176.636V100.124Z" fill="white"/>
<path d="M217.602 87.3895C219.457 90.1486 221.895 92.2179 224.969 93.5975C228.042 95.0301 231.169 95.7199 234.402 95.7199C237.529 95.7199 240.02 95.1362 241.927 93.9689C243.835 92.8016 244.789 91.2098 244.789 89.1404C244.789 87.1772 243.888 85.6916 242.139 84.5773C240.391 83.5161 237.794 82.4549 234.402 81.3407C231.01 80.3856 227.989 79.2713 225.393 78.051C222.796 76.8306 220.623 75.398 218.874 73.8062C217.125 72.2144 215.8 70.3573 214.899 68.2349C213.998 66.1125 213.574 63.6717 213.574 60.8596C213.574 56.8801 214.475 53.272 216.277 50.1946C218.079 47.064 220.464 44.411 223.432 42.2356C226.4 40.0601 229.897 38.3622 233.872 37.248C237.847 36.1337 242.086 35.5501 246.432 35.5501C252.103 35.5501 257.349 36.5051 262.278 38.4153C267.207 40.3254 271.128 43.1376 274.043 46.8518L259.257 59.3208C257.879 57.3576 256.024 55.7658 253.64 54.4924C251.255 53.219 248.393 52.5823 245.107 52.5823C242.563 52.5823 240.232 53.0598 238.165 54.0679C236.045 55.023 235.038 56.7209 235.038 59.0555C235.038 60.7004 235.833 62.0269 237.37 62.9289C238.907 63.884 241.344 64.7329 244.524 65.635C251.361 67.492 256.713 70.0389 260.688 73.3286C264.663 76.6183 266.624 81.3407 266.624 87.6017C266.624 92.0057 265.67 95.826 263.762 99.1157C261.854 102.405 259.363 105.058 256.289 107.181C253.216 109.303 249.718 110.842 245.743 111.85C241.768 112.858 237.794 113.389 233.66 113.389C226.93 113.389 220.941 112.275 215.694 110.046C210.448 107.817 206.155 104.74 202.816 100.814L217.602 87.3895Z" fill="white"/>
<path d="M276.64 87.3895C278.495 90.1486 280.933 92.2179 284.006 93.5975C287.08 95.0301 290.207 95.7199 293.44 95.7199C296.567 95.7199 299.057 95.1362 300.965 93.9689C302.873 92.8016 303.827 91.2098 303.827 89.1404C303.827 87.1772 302.926 85.6916 301.177 84.5773C299.428 83.5161 296.831 82.4549 293.44 81.3407C290.048 80.3856 287.027 79.2713 284.43 78.051C281.834 76.8306 279.661 75.398 277.912 73.8062C276.163 72.2144 274.838 70.3573 273.937 68.2349C273.036 66.1125 272.612 63.6717 272.612 60.8596C272.612 56.8801 273.513 53.272 275.315 50.1946C277.117 47.064 279.502 44.411 282.47 42.2356C285.437 40.0601 288.935 38.3622 292.91 37.248C296.884 36.1337 301.124 35.5501 305.47 35.5501C311.14 35.5501 316.387 36.5051 321.316 38.4153C326.244 40.3254 330.166 43.1376 333.081 46.8518L318.507 59.2678C317.129 57.3046 315.274 55.7128 312.889 54.4394C310.505 53.1659 307.643 52.5292 304.357 52.5292C301.813 52.5292 299.481 53.0067 297.414 54.0149C295.295 54.9699 294.288 56.6678 294.288 59.0025C294.288 60.6473 295.083 61.9738 296.62 62.8759C298.156 63.8309 300.594 64.6799 303.774 65.5819C310.61 67.439 315.963 69.9859 319.938 73.2756C323.913 76.5653 325.873 81.2876 325.873 87.5487C325.873 91.9526 324.919 95.7729 323.012 99.0626C321.104 102.352 318.613 105.005 315.539 107.128C312.465 109.25 308.968 110.789 304.993 111.797C301.018 112.805 297.043 113.336 292.91 113.336C286.179 113.336 280.191 112.221 274.944 109.993C269.697 107.764 265.405 104.687 262.066 100.761L276.64 87.3895Z" fill="white"/>
<path d="M350.676 80.4917C350.57 80.8631 350.517 81.3407 350.517 81.8182C350.517 83.8875 350.994 85.6916 351.894 87.2834C352.795 88.8752 354.014 90.2547 355.551 91.369C357.035 92.4832 358.784 93.3322 360.692 93.9158C362.6 94.4995 364.561 94.8178 366.627 94.8178C370.337 94.8178 373.623 94.1281 376.432 92.7485C379.24 91.369 381.784 89.5119 384.063 87.1772L398.849 98.7443C394.185 103.732 388.939 107.287 383.215 109.515C377.439 111.691 371.291 112.805 364.667 112.805C359.579 112.805 354.915 112.115 350.57 110.683C346.224 109.25 342.461 107.181 339.228 104.369C335.996 101.609 333.452 98.1606 331.65 94.0219C329.795 89.9363 328.894 85.214 328.894 79.9611C328.894 73.7 330.007 67.8635 332.18 62.4514C334.353 57.0393 337.374 52.317 341.242 48.3375C345.111 44.358 349.722 41.1744 355.074 38.8928C360.427 36.6113 366.309 35.4439 372.775 35.4439C377.545 35.4439 381.89 36.1337 385.865 37.5133C389.84 38.8928 393.178 40.856 396.04 43.456C398.849 46.0559 401.075 49.2395 402.612 53.0598C404.149 56.8801 404.944 61.2841 404.944 66.2186C404.944 67.9696 404.785 70.1981 404.414 72.9042C404.096 75.6102 403.619 78.104 403.036 80.4386H350.676V80.4917ZM383.851 66.1656C383.957 65.688 384.01 65.2105 384.01 64.6799C384.01 64.2023 384.01 63.7248 384.01 63.1942C384.01 59.9576 382.844 57.3046 380.565 55.1291C378.287 53.0067 375.001 51.8925 370.708 51.8925C368.058 51.8925 365.726 52.37 363.607 53.272C361.487 54.2271 359.685 55.3414 358.148 56.7209C356.611 58.1005 355.339 59.5861 354.332 61.2841C353.378 62.9289 352.689 64.5738 352.265 66.1125H383.851V66.1656Z" fill="white"/>
<path d="M404.308 110.683L423.757 0H447.605L427.997 110.683H404.308Z" fill="white"/>
<path d="M438.702 110.683L458.152 0H482L462.391 110.683H438.702Z" fill="white"/>
<path d="M52.9961 132.756C54.2681 132.756 55.54 133.021 56.5469 133.605V136.576C55.7519 136.045 54.586 135.727 53.4731 135.727C51.6182 135.727 49.8694 136.629 49.8694 138.964C49.8694 141.192 51.6182 142.2 53.4201 142.2C54.639 142.2 55.8579 141.882 56.6529 141.351V144.323C55.54 144.8 54.2151 145.118 52.7312 145.118C49.5514 145.118 46.4246 143.261 46.4246 139.176C46.4776 134.613 49.7634 132.756 52.9961 132.756Z" fill="white"/>
<path d="M59.5147 144.694V133.074H62.8535V139.6L67.9941 133.074H70.9089V144.694H67.5701V138.168L62.4295 144.694H59.5147Z" fill="white"/>
<path d="M80.1302 132.756C81.4021 132.756 82.674 133.021 83.6809 133.605V136.576C82.886 136.045 81.7201 135.727 80.6071 135.727C78.7523 135.727 77.0034 136.629 77.0034 138.964C77.0034 141.192 78.7523 142.2 80.5541 142.2C81.7731 142.2 82.992 141.882 83.7869 141.351V144.323C82.674 144.8 81.3491 145.118 79.8652 145.118C76.6854 145.118 73.5587 143.261 73.5587 139.176C73.6117 134.613 76.8974 132.756 80.1302 132.756Z" fill="white"/>
<path d="M89.2985 144.694V135.939H85.5888V133.127H96.294V135.939H92.5843V144.694H89.2985Z" fill="white"/>
<path d="M103.607 132.756C108.43 132.756 109.967 136.576 109.172 139.972H101.011C101.382 141.67 103.183 142.359 105.091 142.359C106.416 142.359 107.582 142.094 108.589 141.67V144.323C107.529 144.8 106.098 145.065 104.349 145.065C100.693 145.065 97.6189 142.943 97.6189 138.911C97.6189 134.507 101.011 132.756 103.607 132.756ZM103.713 135.302C102.283 135.302 101.011 136.204 101.011 137.796H106.151C106.257 137 105.833 135.302 103.713 135.302Z" fill="white"/>
<path d="M111.928 144.694V133.074H115.161L118.764 138.804L122.368 133.074H125.548V144.694H122.315V137.849L119.612 142.2H117.969L115.267 137.849V144.694H111.928Z" fill="white"/>
<path d="M140.069 142.466C140.281 142.466 140.493 142.466 140.705 142.359V144.535C140.175 144.747 139.486 144.853 138.85 144.853C137.684 144.853 136.783 144.429 136.306 143.527C135.193 144.429 133.868 144.959 132.119 144.959C129.947 144.959 128.092 143.686 128.092 141.404C128.092 138.433 130.848 137.531 133.179 137.531C134.08 137.531 135.087 137.637 135.935 137.849V137.425C135.935 136.258 135.034 135.462 133.232 135.462C131.642 135.462 130.212 135.886 129.152 136.311V133.392C130.106 133.074 131.854 132.596 133.656 132.596C137.154 132.596 139.327 134.029 139.327 137.849V141.563C139.221 142.306 139.592 142.466 140.069 142.466ZM131.483 141.245C131.483 142.094 132.278 142.678 133.285 142.678C134.239 142.678 135.14 142.412 135.882 141.723V139.919C135.352 139.813 134.61 139.653 133.921 139.653C132.649 139.6 131.483 140.025 131.483 141.245Z" fill="white"/>
<path d="M154.696 132.756C155.968 132.756 157.24 133.021 158.247 133.605V136.576C157.452 136.045 156.286 135.727 155.173 135.727C153.318 135.727 151.569 136.629 151.569 138.964C151.569 141.192 153.318 142.2 155.12 142.2C156.339 142.2 157.558 141.882 158.353 141.351V144.323C157.24 144.8 155.915 145.118 154.431 145.118C151.251 145.118 148.124 143.261 148.124 139.176C148.124 134.613 151.463 132.756 154.696 132.756Z" fill="white"/>
<path d="M161.161 144.694V133.074H164.5V137.478H169.164V133.074H172.502V144.694H169.164V140.29H164.5V144.694H161.161Z" fill="white"/>
<path d="M187.076 142.466C187.288 142.466 187.5 142.466 187.712 142.359V144.535C187.182 144.747 186.493 144.853 185.858 144.853C184.692 144.853 183.791 144.429 183.314 143.527C182.201 144.429 180.876 144.959 179.127 144.959C176.954 144.959 175.046 143.686 175.046 141.404C175.046 138.433 177.802 137.531 180.134 137.531C181.035 137.531 182.042 137.637 182.89 137.849V137.425C182.89 136.258 181.989 135.462 180.187 135.462C178.597 135.462 177.166 135.886 176.106 136.311V133.392C177.06 133.074 178.809 132.596 180.611 132.596C184.109 132.596 186.282 134.029 186.282 137.849V141.563C186.282 142.306 186.652 142.466 187.076 142.466ZM178.491 141.245C178.491 142.094 179.286 142.678 180.293 142.678C181.247 142.678 182.148 142.412 182.89 141.723V139.919C182.36 139.813 181.618 139.653 180.929 139.653C179.71 139.6 178.491 140.025 178.491 141.245Z" fill="white"/>
<path d="M195.662 145.012C192.27 145.012 189.461 142.996 189.461 138.008C189.461 133.87 190.945 131.482 193.012 130.156C196.351 128.086 199.16 128.988 200.802 127.45V130.527C199.213 131.8 197.305 131.164 195.026 132.384C193.701 133.127 193.065 134.56 192.906 135.674C193.648 134.666 194.92 133.87 196.669 133.87C199.531 133.87 201.809 135.886 201.809 139.441C201.809 143.102 199.16 145.012 195.662 145.012ZM195.662 142.359C197.729 142.359 198.365 140.768 198.365 139.441C198.365 138.115 197.676 136.523 195.662 136.523C193.648 136.523 192.906 138.221 192.906 139.441C192.906 140.715 193.648 142.359 195.662 142.359Z" fill="white"/>
<path d="M217.92 144.694L215.058 140.396H213.733V144.694H210.395V140.396H209.07L206.208 144.694H202.604L206.632 138.857L202.975 133.074H206.526L209.282 137.69H210.342V133.074H213.681V137.69H214.74L217.496 133.074H221.047L217.39 138.857L221.418 144.694H217.92Z" fill="white"/>
<path d="M228.201 132.756C233.024 132.756 234.561 136.576 233.766 139.972H225.605C225.976 141.67 227.778 142.359 229.685 142.359C231.01 142.359 232.176 142.094 233.183 141.67V144.323C232.123 144.8 230.692 145.065 228.943 145.065C225.287 145.065 222.213 142.943 222.213 138.911C222.266 134.507 225.605 132.756 228.201 132.756ZM228.36 135.302C226.93 135.302 225.658 136.204 225.658 137.796H230.798C230.904 137 230.427 135.302 228.36 135.302Z" fill="white"/>
<path d="M236.575 144.694V133.074H239.914V137.478H244.577V133.074H247.916V144.694H244.577V140.29H239.914V144.694H236.575Z" fill="white"/>
<path d="M251.255 144.694V133.074H254.594V139.6L259.734 133.074H262.649V144.694H259.31V138.168L254.17 144.694H251.255Z" fill="white"/>
<path d="M265.034 144.694L268.055 140.821C266.465 140.131 265.67 138.751 265.67 137.16C265.67 134.984 267.26 133.127 270.28 133.127H276.534V144.747H273.195V141.298H271.34L268.743 144.747H265.034V144.694ZM271.022 138.751H273.248V135.78H271.022C269.803 135.78 269.114 136.311 269.114 137.266C269.114 138.221 269.803 138.751 271.022 138.751Z" fill="white"/>
<path d="M285.755 144.694V133.074H297.149V144.694H293.811V135.939H289.147V144.694H285.755Z" fill="white"/>
<path d="M307.696 132.756C311.352 132.756 313.366 135.727 313.366 138.91C313.366 142.094 311.405 145.065 307.696 145.065C305.841 145.065 304.622 144.323 303.88 143.474V150H300.488V133.074H303.456V134.772C304.198 133.764 305.523 132.756 307.696 132.756ZM306.848 135.568C305.364 135.568 304.304 136.47 303.827 137.478V140.237C304.304 141.245 305.364 142.147 306.848 142.147C308.756 142.147 309.869 140.661 309.869 138.857C309.869 137.106 308.756 135.568 306.848 135.568Z" fill="white"/>
<path d="M321.316 132.756C326.138 132.756 327.675 136.576 326.88 139.972H318.719C319.09 141.67 320.892 142.359 322.8 142.359C324.124 142.359 325.29 142.094 326.297 141.67V144.323C325.237 144.8 323.807 145.065 322.058 145.065C318.401 145.065 315.327 142.943 315.327 138.911C315.38 134.507 318.719 132.756 321.316 132.756ZM321.422 135.302C319.991 135.302 318.719 136.204 318.719 137.796H323.859C324.018 137 323.542 135.302 321.422 135.302Z" fill="white"/>
<path d="M328.576 147.771V142.147H330.219C331.597 139.706 331.968 136.788 331.915 133.127H341.454V142.147H343.203V147.771H340.129V144.694H331.756V147.771H328.576ZM333.664 142.147H338.062V135.674H334.936C334.883 138.38 334.565 140.237 333.664 142.147Z" fill="white"/>
<path d="M345.747 144.694V133.074H357.141V144.694H353.802V135.939H349.139V144.694H345.747Z" fill="white"/>
<path d="M367.634 132.756C371.291 132.756 373.305 135.727 373.305 138.91C373.305 142.094 371.344 145.065 367.634 145.065C365.779 145.065 364.561 144.323 363.819 143.474V150H360.48V133.074H363.448V134.772C364.137 133.764 365.461 132.756 367.634 132.756ZM366.786 135.568C365.302 135.568 364.243 136.47 363.766 137.478V140.237C364.243 141.245 365.302 142.147 366.786 142.147C368.694 142.147 369.807 140.661 369.807 138.857C369.86 137.106 368.694 135.568 366.786 135.568Z" fill="white"/>
<path d="M375.955 144.694V133.074H379.293V139.6L384.434 133.074H387.349V144.694H384.01V138.168L378.87 144.694H375.955Z" fill="white"/>
<path d="M389.681 144.694L392.701 140.821C391.112 140.131 390.317 138.751 390.317 137.16C390.317 134.984 391.907 133.127 394.927 133.127H401.181V144.747H397.842V141.298H395.987L393.39 144.747H389.681V144.694ZM395.669 138.751H397.895V135.78H395.669C394.45 135.78 393.761 136.311 393.761 137.266C393.761 138.221 394.45 138.751 395.669 138.751Z" fill="white"/>
<path d="M407.275 144.694V135.939H403.566V133.127H414.271V135.939H410.561V144.694H407.275Z" fill="white"/>
<path d="M416.603 144.694V133.074H419.942V139.6L425.082 133.074H427.997V144.694H424.658V138.168L419.518 144.694H416.603Z" fill="white"/>
<path d="M437.059 131.694C435.575 131.694 434.41 131.376 433.35 130.739V128.245C434.621 128.935 435.787 129.147 437.059 129.147C438.278 129.147 439.497 128.935 440.769 128.245V130.739C439.709 131.376 438.543 131.694 437.059 131.694ZM431.336 144.694V133.074H434.674V139.6L439.815 133.074H442.73V144.694H439.391V138.168L434.251 144.694H431.336Z" fill="white"/>
</svg>
