<svg width="120" height="120" viewBox="0 0 120 120" fill="none" xmlns="http://www.w3.org/2000/svg">
<path d="M94 50C94 69.3348 59 104.943 59 104.943C59 104.943 24 69.3348 24 50C24 40.7174 27.6875 31.815 34.2513 25.2513C40.815 18.6875 49.7174 15 59 15C68.2826 15 77.185 18.6875 83.7487 25.2513C90.3125 31.815 94 40.7174 94 50V50Z" fill="#41526F"/>
<path fill-rule="evenodd" clip-rule="evenodd" d="M69.0881 46.9015C68.22 46.1971 67.0419 45.7071 65.5228 45.3089C64.8097 45.1252 64.2826 44.9414 63.9416 44.7577C63.6006 44.5433 63.4145 44.2983 63.4145 43.9614C63.4145 43.4714 63.6316 43.1345 64.1276 42.9201C64.5617 42.7057 65.0887 42.6138 65.6468 42.6138C66.3598 42.6138 67.0109 42.7364 67.5379 43.012C68.065 43.2876 68.499 43.6245 68.7781 44.0226L72.0334 41.3888C71.3823 40.5925 70.5142 40.0413 69.4291 39.6125C68.344 39.2144 67.1659 39 65.9258 39C64.9647 39 64.0346 39.1225 63.1665 39.3675C62.2984 39.5819 61.5234 39.9494 60.8723 40.4088C60.2212 40.8682 59.6942 41.4194 59.2911 42.0932C58.8881 42.7364 58.7021 43.4714 58.7021 44.3289C58.7021 44.9108 58.7951 45.4314 59.0121 45.8602C59.2291 46.2889 59.4772 46.6871 59.8802 47.024C60.2522 47.3609 60.7483 47.6365 61.3373 47.9121C61.8954 48.1571 62.5775 48.4021 63.3215 48.6165C64.0656 48.8309 64.6547 49.0453 65.0267 49.2903C65.3987 49.5047 65.6158 49.8109 65.6158 50.2397C65.6158 50.6684 65.3987 51.0053 64.9957 51.2503C64.5617 51.4953 64.0346 51.6178 63.3215 51.6178C62.6616 51.6178 62.0547 51.4342 61.4027 51.2369L61.2443 51.1891C60.3142 50.8522 58.8881 50.0253 58.113 49.3822C58.0996 49.4285 58.0862 49.4762 58.0725 49.5251L58.0723 49.5257C58.0227 49.7029 57.9688 49.8947 57.896 50.0865C57.524 51.0359 57.0279 51.9241 56.4079 52.6897V52.7204C57.1209 53.5166 58.082 54.1598 59.2601 54.6192C60.4073 55.0786 61.7404 55.3236 63.2285 55.3236C64.1276 55.3236 65.0267 55.2011 65.8948 55.0173C66.7629 54.8336 67.5379 54.4967 68.22 54.0373C68.9021 53.5779 69.4291 53.0266 69.8632 52.3529C70.2972 51.6485 70.4832 50.8828 70.4832 49.964C70.3902 48.5553 69.9562 47.6059 69.0881 46.9015ZM71.8784 53.6392L71.6614 55.1705H87.783L88 53.6392H71.8784ZM53.8967 39.6737C54.7337 39.98 55.4468 40.4394 56.0049 41.0213C56.5939 41.6032 57.028 42.2769 57.338 43.0732C57.617 43.8695 57.772 44.727 57.772 45.6764C57.772 46.9627 57.555 48.1877 57.121 49.3515C56.6559 50.4846 56.0359 51.4953 55.2608 52.3528C54.4547 53.2103 53.5246 53.8841 52.4395 54.3741C51.3544 54.8641 50.1453 55.1398 48.8742 55.1398C47.696 55.1398 46.6729 54.956 45.8049 54.5273C44.9678 54.0985 44.3167 53.5472 43.8827 52.8428H43.8207L42.1775 62H37L41.2164 39.5512H46.0839L45.7119 41.6338H45.8049C46.3939 40.8681 47.138 40.2556 48.0681 39.8269C48.9982 39.3981 49.9903 39.1837 51.0444 39.1837C52.0985 39.1837 53.0596 39.3368 53.8967 39.6737ZM51.3854 49.719C51.7574 49.2902 52.0675 48.7696 52.2845 48.1877C52.5325 47.6058 52.6255 46.9933 52.6255 46.2889C52.6255 45.3701 52.3465 44.6351 51.7884 43.992C51.2304 43.3488 50.4243 43.0426 49.3392 43.0426C48.6881 43.0426 48.0991 43.1651 47.541 43.4407C46.952 43.7163 46.4869 44.0838 46.0839 44.5126C45.6808 44.9414 45.3708 45.462 45.1228 46.0745C44.8748 46.687 44.7508 47.2996 44.7508 47.9427C44.7508 48.8921 45.0298 49.6271 45.6498 50.2396C46.2389 50.8215 47.076 51.1278 48.1301 51.1278C48.8432 51.1278 49.4632 51.0053 49.9903 50.7603C50.5173 50.5153 51.0134 50.1478 51.3854 49.719Z" fill="white"/>
</svg>
