<?xml version="1.0" encoding="UTF-8"?><!DOCTYPE svg PUBLIC "-//W3C//DTD SVG 1.1//EN" "http://www.w3.org/Graphics/SVG/1.1/DTD/svg11.dtd"><svg xmlns="http://www.w3.org/2000/svg"><symbol id="icon-home01" viewBox="0 0 120 120">
    <path fill-rule="evenodd" clip-rule="evenodd" d="M108.671 34.969c.665 0 1.331.5 1.497 1.167.499 2.167.832 4.502.832 6.67 0 2.167-.166 4.335-.666 6.502-.166.834-.831 1.334-1.497 1.334h-1.997c-.665 2.334-1.497 4.668-2.828 6.836l1.331 1.334c.499.5.499 1.334.166 2-2.496 3.836-5.657 6.837-9.318 9.338-.665.5-1.497.334-1.996-.167l-1.498-1.167c-2.163 1.167-4.492 2.168-6.822 2.835v2c0 .668-.665 1.334-1.33 1.501-2.164.5-4.327.667-6.49.667-2.163 0-4.326-.167-6.49-.667-.831-.167-1.33-.834-1.33-1.5V71.65c-2.33-.667-4.66-1.668-6.822-2.835l-1.331 1.334c-.5.5-1.331.5-1.997.167-3.827-2.501-6.822-5.67-9.318-9.337-.5-.667-.333-1.501.166-2.001l1.332-1.834c-1.165-2.168-2.163-4.502-2.829-6.837h-1.997c-.665 0-1.33-.666-1.497-1.333-.5-2.168-.666-4.336-.666-6.503 0-2.168.167-4.335.666-6.503.166-.667.832-1.167 1.497-1.167h1.997c.666-2.334 1.498-4.669 2.829-6.836l-1.331-1.334c-.5-.5-.666-1.334-.167-1.834 2.496-3.835 5.657-6.836 9.318-9.337.666-.5 1.497-.334 1.997.166l1.33 1.334c2.164-1.167 4.493-2.167 6.823-2.834v-2.001c0-.667.665-1.334 1.33-1.5a34.853 34.853 0 0 1 13.145 0c.833.166 1.332.833 1.332 1.5v2c2.33.668 4.659 1.668 6.822 2.835l1.33-1.334c.5-.5 1.332-.667 1.831-.166 3.827 2.5 6.822 5.669 9.318 9.337.499.667.333 1.5-.167 2l-1.331 1.335c1.165 2.167 2.163 4.501 2.829 6.836h1.997zm-3.162 12.505h1.83c.167-1.5.333-3.168.167-4.835 0-1.501-.167-3.168-.333-4.669h-1.83c-.666 0-1.331-.5-1.498-1.167-.499-2.835-1.664-5.67-3.327-8.17-.5-.667-.333-1.5.166-2.001l1.497-1.334c-1.83-2.668-4.16-4.835-6.655-6.67l-1.331 1.334c-.5.5-1.331.5-1.997.167a28.982 28.982 0 0 0-8.153-3.335c-.666-.166-1.165-.833-1.165-1.5V13.46c-2.995-.5-6.156-.5-9.318 0v2c0 .668-.499 1.334-1.164 1.501-2.829.667-5.657 1.668-8.153 3.335-.666.5-1.498.333-1.997-.167l-1.331-1.334c-2.662 1.834-4.825 4.169-6.656 6.67l1.331 1.334c.5.5.5 1.334.167 2a29.11 29.11 0 0 0-3.328 8.17c-.166.667-.832 1.168-1.497 1.168h-1.83c-.167 1.5-.334 3.168-.334 4.668 0 1.501.167 3.168.333 4.669h1.83c.666 0 1.332.5 1.498 1.167.666 2.835 1.664 5.67 3.328 8.17.499.667.333 1.5-.167 2.001l-1.33 1.334c1.83 2.668 4.159 4.835 6.655 6.67l1.331-1.335c.5-.5 1.331-.5 1.997-.166a28.983 28.983 0 0 0 8.153 3.334c.665.167 1.164.834 1.164 1.501v1.834c2.995.5 6.157.5 9.318 0V70.15c0-.667.5-1.334 1.165-1.5 2.829-.668 5.657-1.668 8.153-3.335.666-.5 1.498-.334 1.997.166l1.33 1.334c2.663-1.834 4.826-4.168 6.656-6.67l-1.331-1.333c-.499-.5-.499-1.334-.166-2a29.141 29.141 0 0 0 3.328-8.17c.166-.668.832-1.168 1.497-1.168zM17.323 52.81l.166-.5c-.499-.334-.832-.668-1.165-1.001-.499-.334-.832-.834-1.164-1.334h-.5c-.665.167-1.497 0-1.83-.667-1.164-2.167-1.83-4.502-1.83-6.836 0-.667.5-1.334 1.165-1.5l.499-.167c0-1.168.333-2.335.832-3.335l-.333-.334c-.5-.5-.5-1.167-.166-1.834.665-1.167 1.33-2 2.163-2.834.832-.834 1.664-1.5 2.828-2.168.5-.333 1.332-.333 1.83.167l.333.333c.215-.061.425-.123.63-.183h.001c.91-.268 1.748-.514 2.697-.65l.167-.5c.166-.667.831-1.168 1.497-1.168 2.33 0 4.659.667 6.656 1.835.499.5.832 1.167.665 1.834l-.166.5c.499.333.998.833 1.331 1.167.5.333.832.834 1.165 1.334l.499-.167c.832-.333 1.497 0 1.83.667 1.165 2.168 1.83 4.502 1.83 6.836 0 .667-.499 1.334-1.164 1.5l-.5.168c0 1.167-.332 2.334-.831 3.334l.332.334c.5.5.5 1.167.167 1.834-.666 1.167-1.331 2-2.163 2.834-.832.834-1.664 1.501-2.829 2.168-.5.5-1.331.333-1.83-.167l-.333-.333c-.214.06-.422.122-.627.182l-.002.001h-.002c-.909.268-1.747.515-2.697.65l-.166.5c-.167.668-.832 1.168-1.498 1.168-2.33 0-4.659-.667-6.822-1.834-.499-.5-.832-1.167-.665-1.834zm-3.162-9.17c.167 1 .333 2 .832 3h.333c.666-.166 1.331 0 1.83.834l.293.396.001.001c.352.479.643.875 1.038 1.27.395.396.79.688 1.267 1.04h.001c.126.093.257.19.395.294.5.334.832 1 .666 1.668v.333c.998.5 1.997.667 2.995.834v-.667c.166-.667.832-1.167 1.497-1.167 1.498 0 2.83-.5 4.16-1.167.666-.334 1.331-.167 1.83.333l.333.333c.167-.166.375-.333.583-.5.208-.166.416-.333.582-.5.333-.333.666-.667.998-1.167l-.332-.334c-.5-.5-.666-1.167-.333-1.834.665-1.334 1.164-2.667 1.164-4.168 0-.667.5-1.334 1.165-1.5l.333-.167c-.166-1-.333-2.001-.832-3.002l-.333.167c-.665.167-1.33 0-1.664-.667l-.293-.397c-.352-.479-.643-.874-1.038-1.27-.233-.351-.63-.62-1.077-.922-.19-.128-.388-.263-.587-.412-.499-.334-.832-1-.665-1.667V32.3c-.998-.5-1.997-.667-2.995-.834l-.167.334c-.166.667-.831 1.167-1.497 1.167-1.498 0-2.829.5-4.16 1.167-.665.334-1.33.167-1.83-.333l-.333-.334c-.499.334-.832.667-1.165 1-.332.334-.665.668-.998 1.168l.333.333c.499.5.665 1.167.333 1.834-.666 1.334-1.165 2.668-1.165 4.169 0 .667-.5 1.334-1.165 1.5l-.333.167zm44.094 43.85l-1.997-.5c-.166-1.333-.333-2.667-.666-3.834l1.664-1.168c.666-.5.832-1.167.5-1.834-1.332-3.168-3.328-6.002-5.99-8.17-.5-.5-1.332-.5-1.997 0l-1.664 1.167c-1.331-1-2.829-1.667-4.326-2.167v-2.168c0-.667-.5-1.334-1.165-1.5-3.328-.834-6.656-.834-10.15 0-.665.166-1.165.833-1.165 1.5v2.168c-.215.092-.436.185-.66.278l-.001.001c-.985.412-2.02.845-2.833 1.388l-1.664-1.334c-.499-.5-1.33-.5-1.996 0-2.662 2.001-4.825 4.836-6.323 7.837-.333.667-.166 1.5.5 1.834l1.663 1.334c-.5 1.167-.665 2.5-.832 3.835l-1.997.5c-.665.167-1.164 1-1.164 1.667v.334c0 3.168.665 6.336 2.163 9.337.332.667.998 1 1.664.834l1.83-.5c.665 1.167 1.497 2.167 2.33 3.168l-.999 1.834c-.333.667-.166 1.5.333 1.834 2.496 2.167 5.657 3.835 8.985 4.502.665.166 1.497-.167 1.83-.834l.998-1.834c1.332.167 2.663.167 3.994.167l.832 1.834c.333.5.832 1 1.497 1h.333c3.328-.667 6.49-2.001 9.152-4.168.499-.501.831-1.167.499-1.834l-.832-1.835a10.907 10.907 0 0 0 2.495-3l1.997.5c.666.166 1.498-.167 1.83-.834 1.664-3.001 2.496-6.336 2.663-9.838-.167-.667-.666-1.334-1.331-1.5zm-3.661 8.838l-1.997-.5c-.665-.167-1.33.166-1.663.666-.999 1.501-1.997 2.835-3.328 4.002-.5.5-.666 1.167-.5 1.834l.832 1.834c-1.83 1.167-3.66 2.001-5.657 2.501l-.832-1.834c-.332-.5-.832-1-1.497-1h-.167c-1.663.167-3.494.167-5.158-.167-.665-.167-1.33.167-1.664.834l-.831 1.667c-1.997-.667-3.827-1.667-5.491-2.834l.832-1.668c.332-.667.166-1.334-.333-1.834-1.331-1.167-2.33-2.668-3.162-4.168-.332-.667-.998-1-1.664-.834l-1.83.334c-1.165-1.835-1.497-3.835-1.664-5.836l1.997-.334c.666-.166 1.165-.667 1.165-1.5.166-1.834.499-3.502 1.164-5.17.333-.666.167-1.333-.499-1.833L21.15 79.32c.998-1.834 2.33-3.502 3.993-4.836l1.498 1.167c.499.5 1.33.5 1.83 0 1.497-1 2.995-1.834 4.659-2.334.665-.167 1.164-.834 1.164-1.5v-1.835c2.164-.333 4.16-.333 6.157 0v2.001c0 .667.5 1.334 1.165 1.5 1.996.501 3.827 1.502 5.324 2.669.5.5 1.331.5 1.83 0l1.498-1.168c1.497 1.501 2.828 3.168 3.66 5.003l-1.663 1.167c-.5.333-.832 1.167-.5 1.834.666 1.667.999 3.334.999 5.169 0 .667.499 1.334 1.164 1.5l1.83.5c.167 2.168-.332 4.169-1.164 6.17zm-26.29-50.521c-.831.833-2.163 1.334-3.327 1.334-1.165 0-2.33-.5-3.328-1.334a4.737 4.737 0 0 1 0-6.67 4.713 4.713 0 0 1 6.655 0c.832.834 1.332 2.001 1.332 3.335s-.5 2.5-1.332 3.335zm-3.16-5.003c-.5 0-.833.167-1.166.5-.665.5-.665 1.501.167 2.335.499.667 1.497.667 2.163 0 .333-.334.499-.834.499-1.167 0-.5-.166-.834-.5-1.167-.332-.334-.665-.5-1.164-.5zm12.312 38.183c-5.158 0-9.318 4.168-9.318 9.337s4.16 9.337 9.318 9.337c5.158 0 9.318-4.168 9.318-9.337.166-5.169-4.16-9.337-9.318-9.337zm0 15.506c-3.494 0-6.157-2.834-6.157-6.169a6.148 6.148 0 0 1 6.157-6.169c3.494 0 6.156 2.835 6.156 6.17.167 3.334-2.662 6.168-6.156 6.168zm23.46-51.688c0-9.504 7.655-17.174 17.139-17.174 9.484 0 17.138 7.67 17.138 17.174S87.539 59.98 78.055 59.98c-9.484 0-17.138-7.67-17.138-17.174zm3.162 0c0 7.67 6.157 14.006 13.977 14.006s13.977-6.336 13.977-14.006S85.875 28.8 78.055 28.8c-7.654 0-13.977 6.337-13.977 14.006z"/>
</symbol><symbol id="icon-home02" viewBox="0 0 120 120">
    <path fill-rule="evenodd" clip-rule="evenodd" d="M11 51.167c0 23.166 18.833 42.166 42.167 42.166C64.333 93.333 75 88.833 83 81c8-8 12.333-18.5 12.333-29.833C95.333 27.833 76.333 9 53.167 9 29.833 9 11 27.833 11 51.167zm3.167 0c0-21.5 17.5-39 39-39s39 17.5 39.166 38.833c0 10.5-4.166 20.333-11.5 27.667-7.5 7.5-17.166 11.5-27.666 11.5-21.5 0-39-17.5-39-39zm39 2.166c-4 0-7.334-2.833-8.334-6.833-.333-1.167-1.166-5.333-1.333-6.833-.167-2.167-.167-3 0-4.5.5-4 4.667-6.834 9.5-6.834s9 3 9.5 6.834c.333 1.5.333 2.333.167 4.5 0 1.5-1.167 6.666-1.167 6.666-.833 4.167-4.333 7-8.333 7zm0-21.5c-3.334 0-6.167 1.667-6.5 4C46.5 37 46.5 37.667 46.5 40c0 .482.436 2.532.803 4.26v.001c.14.662.271 1.277.364 1.739.666 2.667 2.833 4.5 5.333 4.5s4.667-1.833 5.333-4.5c.5-2 1.167-5.333 1.167-6.167.167-2 .167-2.666 0-3.833-.167-2.333-3-4.167-6.333-4.167zm8.5 21.667l6.666 3.667c4.846 3.046 6.242 10.922 6.766 13.884.107.604.178 1.003.234 1.116 0 .5-.166.833-.5 1.166-.333.334-.666.5-1.166.5H33c-.5 0-.833-.166-1.167-.5-.333-.333-.5-.666-.5-1.166 0-.5.834-11.334 6.667-14.834l6.833-3.666c.167-.167.5-.167.667-.167h.5l7.167 2.833 7.166-2.833c.5-.167 1-.167 1.334 0zm-5 4.833L59.333 60v-2.667l-2.666 1zm-7 0l-2.667-1V60l2.667-1.667zm5.333 7.5h-3.5L51 70.5h4.5l-.5-4.667zm-.167-3.166v-1.834l-1.666-1-1.667 1c0 .084.042.125.083.167.042.042.084.083.084.167v1.5h3.166zm-11-5L39.5 60c-3 1.833-4.5 7.167-4.833 10.667H48l.667-6.334v-1.5l-2.334 1.334c-.333.166-.5.166-.833.166-.333 0-.667 0-.833-.166-.5-.167-.834-.834-.834-1.334v-5.166zm14 6.5L58.5 70.5H72c-.5-3.333-1.833-8.833-5-10.667L62.667 57.5v5.167c0 .5-.334 1-.834 1.333-.333.167-.5.167-.833.167-.333 0-.667 0-.833-.167l-2.334-1.333v1.5zm52.667 24.5l-17-17c-.5 1-1 1.833-1.667 2.833l15.334 15.333-15.5 15.5L76.333 90c-.5.25-.958.542-1.416.833-.459.292-.917.584-1.417.834l17 17c.333.333.667.5 1.167.5.333 0 .833-.167 1.166-.5L110.5 91c.667-.667.667-1.667 0-2.333z"/>
</symbol><symbol id="icon-home03" viewBox="0 0 120 120">
    <path fill-rule="evenodd" clip-rule="evenodd" d="M109.708 16.565c.667 0 1.167.5 1.334 1 .166.5 0 1.167-.5 1.334l-9.334 9.333a.358.358 0 0 1-.333.333c-.167.167-1.833 1-4.167 1-1.833 0-3.333-.5-4.666-1.333L64.375 55.9l2.5 2.666c.333.334.5 1 .333 1.5-.166.667-.666 1-1.166 1.167l-9.334 2.333h-.333c-.5 0-.833-.166-1.167-.5-.333-.333-.5-1-.333-1.5l2.333-9.333c.167-.667.667-1 1.167-1.167.5-.166 1.167 0 1.5.334l2.333 2.333 27.667-27.667c-2.833-4-.667-8.666-.5-8.833 0 0 .167-.167.333-.5L99.042 7.4c.5-.334 1.166-.5 1.666-.334.5.334 1 .667 1 1.334l1 7 7 1.166zM59.542 55.4l-1 4.166 4.166-1-3.166-3.166zm40.333-35l4.333.666 2-2-4.333-.666-2 2zm-2.833-6.5l.666 4.333 1.834-2-.5-4.333-2 2zm-2.667 2.666L92.042 18.9c-.334.666-1 2.833.166 4.833l2.834-2.833-.667-4.334zm2.167 10c1.166 0 2.166-.333 2.666-.5l2.167-2.166-4.333-.667-2.834 2.833c.667.334 1.5.5 2.334.5zm-77.334 78.001c-.5.666-.5 1.666.167 2.166.333.167.667.334 1 .334.5 0 .833-.167 1.167-.5l5.166-6.334c-.833-.666-1.666-1.333-2.333-2l-5.167 6.334zm69-6.334c-.833.667-1.666 1.334-2.333 2l5.167 6.334c.333.333.833.5 1.166.5.334 0 .667-.167 1-.334.667-.5.834-1.5.167-2.166l-5.167-6.334zm-35.5-41.5l1-3.833c-1.5.333-2.833 1.166-4 2.333-1.833 1.833-2.666 4.167-2.666 6.667s1 4.833 2.666 6.666c1.834 1.834 4.167 2.667 6.667 2.667s4.833-1 6.667-2.667c1.166-1.166 1.833-2.5 2.333-4l-4 .834c-.167.333-.333.666-.5.833-2.333 2.333-6.5 2.333-8.833 0-1.167-1.167-1.834-2.833-1.834-4.5 0-1.667.667-3.167 1.834-4.5.083-.083.208-.167.333-.25.125-.083.25-.167.333-.25zm14.334-12.333l-2.334 2.333c-2.5-1.333-5.333-2.167-8.333-2.167-4.667 0-9 1.834-12.167 5-6.666 6.667-6.666 17.667 0 24.334 3.334 3.166 7.5 5 12.167 5s9-1.834 12.167-5c3.166-3.334 5-7.5 5-12.167 0-3-.834-5.833-2.167-8.333l2.333-2.334c1.834 3.167 3 6.834 3 10.667 0 5.333-2.166 10.5-6 14.333-3.833 3.834-8.833 6-14.333 6-5.333 0-10.5-2.166-14.333-6-7.834-7.833-7.834-20.666 0-28.666 3.833-3.834 8.833-6 14.333-6 3.833 0 7.5 1 10.667 3zm9-8.834c-5.667-4.166-12.5-6.5-19.667-6.5-8.833 0-17 3.334-23.167 9.667-12.833 12.833-12.833 33.667 0 46.333 6.167 6.167 14.5 9.667 23.167 9.667 8.833 0 17-3.333 23.167-9.667 11.666-11.666 12.666-30 3-42.833l-2.334 2.333c8.334 11.667 7.5 27.834-3 38.334-5.666 5.666-13 8.666-21 8.666s-15.333-3.166-21-8.666c-11.5-11.5-11.5-30.334 0-42 5.667-5.667 13-8.667 21-8.667 6.334 0 12.334 2 17.334 5.667l2.5-2.334zm22.5 26.167c0-9.667-3.167-18.833-9.167-26.333l2.167-2.167c6.666 8 10.166 18 10.166 28.5 0 12-4.833 23.5-13.333 32-8.5 8.667-19.833 13.333-32 13.333-12 0-23.5-4.833-32-13.333-17.833-17.667-17.833-46.333 0-64 8.5-8.667 19.833-13.333 32-13.333 10.5 0 20.5 3.666 28.5 10.166l-2.167 2.167c-7.5-5.833-16.666-9.167-26.333-9.167-11.333 0-21.833 4.334-29.833 12.334-16.5 16.5-16.5 43.166 0 59.666 8 8 18.5 12.334 29.833 12.334 11.333 0 21.833-4.334 29.833-12.334s12.334-18.5 12.334-29.833z"/>
</symbol><symbol id="icon-home04" viewBox="0 0 120 120">
    <path d="M109.594 54.962L74.286 18.435c-.563-.58-1.547-.58-2.25 0l-8.581 8.842c-.282.29-.422.725-.422 1.16 0 .434.14.87.422 1.16l4.36 4.492H52.201l4.36-4.493c.563-.58.563-1.594 0-2.32l-8.58-8.841c-.563-.58-1.548-.58-2.25 0L10.421 54.963c-.563.58-.563 1.594 0 2.319l8.58 8.842c.282.29.704.434 1.126.434.422 0 .844-.144 1.126-.434l2.25-2.32 5.627 5.799-1.547 1.594c-2.532 2.61-2.532 6.958 0 9.712 1.266 1.304 2.954 2.029 4.642 2.029.281 0 .422-.145.703-.145 0 .29-.14.435-.14.725 0 1.884.703 3.624 1.969 4.783 1.266 1.305 2.954 2.03 4.642 2.03.281 0 .422-.145.703-.145 0 .29-.14.434-.14.724 0 1.885.703 3.48 1.969 4.784 1.266 1.304 2.954 2.029 4.642 2.029.281 0 .422-.145.704-.145-.141 2.03.28 4.059 1.828 5.508 1.266 1.305 2.954 2.029 4.642 2.029 1.688 0 3.376-.724 4.642-2.029l1.548-1.594 1.547 1.594c1.266 1.305 2.954 2.029 4.642 2.029 1.688 0 3.376-.724 4.642-2.029 1.266-1.304 1.97-3.044 1.97-4.783v-.58c1.969.145 3.798-.435 5.204-2.03 1.267-1.304 1.97-3.043 1.97-4.783v-.58c1.829.145 3.798-.434 5.205-2.029 1.406-1.45 2.11-3.479 1.969-5.363h.563c1.828 0 3.376-.725 4.642-2.03a7.158 7.158 0 0 0 0-9.711l-1.548-1.594 5.627-5.798 2.25 2.319c.282.29.704.434 1.126.434.422 0 .844-.144 1.126-.434l8.58-8.842c.704-.725.704-1.74.141-2.32zm-89.466 7.683l-6.33-6.523 33.198-34.208 6.33 6.522-33.198 34.209zm9.706 15.8c-1.406-1.45-1.406-3.77 0-5.074l5.346-5.508c1.266-1.305 3.657-1.305 4.923 0 1.407 1.45 1.407 3.769 0 5.073l-5.486 5.653c-1.266 1.305-3.517 1.305-4.783-.144zm9.707 8.552c-.985 0-1.83-.435-2.532-1.015-.704-.725-.985-1.594-.985-2.61 0-1.014.422-1.883.985-2.608l7.736-7.973c.704-.724 1.548-1.014 2.533-1.014.984 0 1.828.435 2.532 1.014 1.406 1.45 1.406 3.77 0 5.074l-7.737 7.972c-.844.725-1.688 1.16-2.532 1.16zm7.174 7.392c-.985 0-1.829-.435-2.532-1.014-.704-.725-.985-1.595-.985-2.61 0-1.014.422-1.884.985-2.609l5.486-5.653c.703-.725 1.547-1.014 2.532-1.014.985 0 1.829.434 2.532 1.014.703.725.985 1.595.985 2.61 0 1.014-.422 1.884-.985 2.608l-5.627 5.653c-.703.58-1.547 1.015-2.391 1.015zm9.565 6.378c-1.406 1.449-3.657 1.449-4.923 0-1.407-1.45-1.407-3.769 0-5.073l3.517-3.624c.703-.725 1.547-1.015 2.532-1.015.844 0 1.828.435 2.532 1.015 1.406 1.45 1.406 3.769 0 5.073l-3.658 3.624zm34.042-22.322c-.703.724-1.547 1.014-2.532 1.014-.984 0-1.828-.435-2.532-1.014-.562-.58-1.547-.58-2.25 0-.282.29-.422.724-.422 1.16 0 .434.14.869.421 1.159 1.407 1.45 1.407 3.769 0 5.073-1.406 1.45-3.657 1.45-4.923 0-.563-.58-1.547-.58-2.25 0-.282.29-.423.725-.423 1.16 0 .434.141.87.422 1.16.704.724.985 1.594.985 2.608 0 1.015-.422 1.885-.985 2.61-1.406 1.449-3.657 1.449-4.923 0-.563-.58-1.547-.58-2.25 0-.282.29-.423.724-.423 1.16 0 .434.14.869.422 1.159.704.724.985 1.594.985 2.609a3.551 3.551 0 0 1-.985 2.464c-1.407 1.449-3.657 1.449-4.923 0l-1.548-1.594c2.392-2.61 2.392-6.813-.14-9.422-.985-1.015-2.392-1.595-3.798-1.885.422-.87.562-1.74.562-2.754 0-1.884-.703-3.623-1.969-4.783-.985-1.015-2.391-1.595-3.798-1.74 1.266-2.609.844-5.798-1.126-7.827-1.969-2.03-5.204-2.32-7.596-1.16-.14-1.449-.703-2.898-1.828-3.913-2.532-2.61-6.893-2.61-9.425 0l-1.829 1.594-5.627-5.798 23.492-24.062H60.36L49.95 48.15c-2.532 2.609-2.532 6.957 0 9.712 1.266 1.304 2.954 2.029 4.642 2.029 1.688 0 3.376-.725 4.642-2.03l8.018-8.262c2.11.87 4.643.435 6.05.145.843 1.305 1.265 2.9.14 4.204-.563.58-.563 1.594 0 2.319l16.74 17.25c1.406 1.304 1.406 3.623.14 4.928zm-1.547-11.162l-12.238-12.61c1.266-2.465.844-5.654-1.548-7.973-.422-.435-.984-.58-1.547-.435-1.266.435-4.36.87-5.486 0-.563-.434-1.547-.434-1.97.145l-8.862 9.132a3.586 3.586 0 0 1-4.923 0c-1.407-1.45-1.407-3.768 0-5.073l12.66-13.046h6.19L94.4 61.485l-5.626 5.798zm11.113-4.638L66.69 28.436l6.33-6.522 33.198 34.208-6.33 6.523z"/>
</symbol><symbol id="icon-home05" viewBox="0 0 120 120">
    <path fill-rule="evenodd" clip-rule="evenodd" d="M94 23.339c0 13.984-5.598 25.006-12.843 25.993-1.646 7.239-6.75 13.161-13.336 15.958v7.733h3.128c.823 0 1.482.658 1.482 1.48v4.607h13.83c2.47 0 4.61 1.974 4.61 4.606v1.48c0 1.975-1.316 3.62-3.128 4.278v9.871c1.812.658 3.129 2.303 3.129 4.278v1.48c0 2.468-2.14 4.607-4.61 4.607H33.738c-2.47 0-4.61-2.139-4.61-4.607v-1.48c0-2.139 1.316-3.784 3.128-4.442V89.31c-1.811-.658-3.129-2.303-3.129-4.278v-1.645c0-2.468 1.976-4.606 4.61-4.606h13.996v-4.607c0-.822.658-1.48 1.481-1.48h3.129V64.96c-6.915-2.632-12.02-8.39-13.501-15.629C31.598 48.345 26 37.322 26 23.34v-4.607c0-.822.659-1.48 1.482-1.645h10.867v-4.606c0-.823.658-1.481 1.482-1.481h40.338c.824 0 1.482.658 1.482 1.48v4.772h10.867c.823 0 1.482.658 1.482 1.48v4.607zm-3.128 0v-2.962h-9.22v24.678c0 .148-.034.296-.07.459-.045.199-.095.42-.095.692 5.269-1.645 9.385-11.351 9.385-22.867zm-61.744-3.126v3.126c0 11.516 4.117 21.222 9.385 22.703 0-.148-.033-.296-.07-.459-.044-.2-.094-.421-.094-.693V20.213h-9.22zm12.349-6.087V44.89c0 10.2 8.232 18.59 18.44 18.755 10.374 0 18.606-8.39 18.606-18.59v-30.93H41.477zm43.138 84.726v-9.213H35.22v9.213h49.395zm1.647 7.732c.823 0 1.481-.658 1.481-1.481v-1.48c0-.823-.658-1.481-1.481-1.481H33.738c-.824 0-1.482.658-1.482 1.481v1.48c0 .823.658 1.481 1.482 1.481h52.523zm1.481-21.552v-1.48c0-.988-.658-1.646-1.481-1.481H33.737c-.823 0-1.481.658-1.481 1.48v1.481c0 .823.658 1.48 1.482 1.48h52.523c.823 0 1.481-.657 1.481-1.48zm-18.44-6.087V75.82H50.697v3.126h18.606zm-13.995-6.251h9.22v-6.746a20.846 20.846 0 0 1-4.61.494c-1.647 0-3.129-.165-4.61-.494v6.746zm11.36-29.284c-.329.164-.658.329-.988.329-.082 0-.205-.041-.329-.083-.123-.04-.247-.082-.33-.082l-4.939-2.632-4.94 2.632c-.493.165-1.152.165-1.646-.164-.494-.33-.823-.823-.658-1.481l.988-5.594-4.117-3.948c-.329-.494-.494-1.152-.329-1.645.33-.494.659-.987 1.317-.987l5.598-.823 2.47-5.1c.165-.493.823-.822 1.317-.822s.988.329 1.318.822l2.47 5.1 5.597.823c.659 0 1.153.493 1.317.987.165.658.165 1.316-.329 1.645l-4.116 3.948.988 5.594c0 .493-.165 1.152-.659 1.48zm-6.586-5.758c.165 0 .494 0 .659.164l2.634 1.48-.494-3.29c0-.493.165-.987.494-1.316l2.47-2.303-3.293-.494c-.494 0-.988-.329-1.152-.822l-1.482-2.961-1.482 2.96a1.238 1.238 0 0 1-1.153.823l-3.293.494 2.47 2.303c.494.33.494.823.494 1.316l-.494 3.29 2.964-1.48c.164-.164.494-.164.658-.164z"/>
</symbol><symbol id="icon-home06" viewBox="0 0 120 120">
    <path fill-rule="evenodd" clip-rule="evenodd" d="M15.573 20h88.854c2.45 0 4.573 2.14 4.573 4.61v58.6c0 2.469-2.123 4.609-4.573 4.609h-35.28v9.218h3.103c.817 0 1.47.658 1.47 1.481A1.47 1.47 0 0 1 72.25 100h-24.5a1.47 1.47 0 0 1-1.47-1.481 1.47 1.47 0 0 1 1.47-1.482h3.103v-9.218h-35.28A4.583 4.583 0 0 1 11 83.209v-58.6C11 22.14 13.123 20 15.573 20zm38.384 77.202h12.25v-9.218h-12.25v9.218zm50.47-12.51a1.47 1.47 0 0 0 1.47-1.482v-58.6a1.47 1.47 0 0 0-1.47-1.482H15.573a1.47 1.47 0 0 0-1.47 1.481v58.6a1.47 1.47 0 0 0 1.47 1.482h88.854zM36.97 55.555c0 2.469-1.96 4.609-4.573 4.609-2.45 0-4.574-2.14-4.574-4.938 0-2.47 1.96-4.61 4.574-4.61 1.306 0 2.45.659 3.266 1.482l5.88-2.634v-.33c0-2.468 1.96-4.608 4.574-4.608 2.45 0 4.573 2.14 4.573 4.609l5.717 1.975c.816-1.152 2.123-1.81 3.593-1.81.98 0 1.633.329 2.45 1.152l7.023-5.597c-.163-.494-.326-.988-.326-1.481 0-2.47 1.96-4.61 4.573-4.61 1.633 0 2.94.824 3.757 2.14l5.553-1.152c.163-2.304 2.123-4.115 4.41-4.115a4.583 4.583 0 0 1 4.573 4.609c0 2.47-2.123 4.61-4.573 4.61-1.633 0-2.94-.824-3.757-2.14l-5.553 1.151c-.163 2.305-2.123 4.116-4.41 4.116-.98 0-1.797-.33-2.45-.823l-7.023 5.596c.163.494.326.988.326 1.482 0 2.469-2.123 4.609-4.573 4.609s-4.573-2.14-4.573-4.61l-5.717-1.974c-.817 1.152-2.123 1.81-3.593 1.81-1.307 0-2.45-.658-3.267-1.481l-5.88 2.633v.33zm52.103-15.638a1.47 1.47 0 0 0-1.47-1.482c-.816 0-1.633.823-1.47 1.482a1.47 1.47 0 1 0 2.94 0zM75.19 43.045a1.47 1.47 0 1 0-2.94 0 1.47 1.47 0 1 0 2.94 0zM61.47 53.91a1.47 1.47 0 1 0-2.94 0 1.47 1.47 0 1 0 2.94 0zM47.75 49.3a1.47 1.47 0 0 0-1.47-1.481c-.98 0-1.633.658-1.47 1.481a1.47 1.47 0 1 0 2.94 0zm-13.883 6.091a1.47 1.47 0 1 0-2.94 0 1.47 1.47 0 1 0 2.94 0zm67.456-29.136H18.677a1.47 1.47 0 0 0-1.47 1.482v52.51a1.47 1.47 0 0 0 1.47 1.481h82.646a1.47 1.47 0 0 0 1.47-1.481v-52.51c.164-.823-.653-1.482-1.47-1.482zM99.69 78.601H20.147V29.218H99.69v49.383zm-70.397-6.09h-1.47c-.816 0-1.47-.66-.816-1.647a1.47 1.47 0 0 1 1.47-1.481v-4.61a1.47 1.47 0 0 1 1.47-1.48h6.206c.817 0 1.47.657 1.47 1.48v4.61h4.574V58.518a1.47 1.47 0 0 1 1.47-1.481h6.206c.817 0 1.47.658 1.47 1.481v10.865h4.574v-6.256a1.47 1.47 0 0 1 1.47-1.481h6.043c.817 0 1.47.658 1.47 1.481v6.256h4.573V52.428a1.47 1.47 0 0 1 1.47-1.482h6.044c.816 0 1.47.659 1.47 1.482v16.955h4.573V49.3a1.47 1.47 0 0 1 1.47-1.481h6.207c.816 0 1.47.658 1.47 1.481v20.247c.816 0 1.47.659 1.47 1.482a1.47 1.47 0 0 1-1.47 1.481H29.293zm59.78-21.73H85.97v18.602h3.103V50.782zm-13.72 3.128H72.25v15.474h3.103V53.909zm-13.72 10.864H58.53v4.61h3.103v-4.61zM47.75 60.166h-3.103v9.218h3.103v-9.218zm-13.72 6.09h-3.103v3.128h3.103v-3.128z"/>
</symbol><symbol id="icon-home07" viewBox="0 0 120 120">
    <path fill-rule="evenodd" clip-rule="evenodd" d="M44.904 41.018v-11.19H63.73c.889 0 1.599-.71 1.599-1.599V15.796c0-.888-.71-1.599-1.599-1.599H44.904V12.6c0-.889-.71-1.599-1.599-1.599-.888 0-1.599.71-1.599 1.599V41.018c.112-.037.215-.074.314-.11.375-.134.686-.245 1.107-.245.711 0 1.244.177 1.777.355zm17.229-23.801v9.414h-17.23v-9.414h17.23zm9.236 53.996L82.737 58.78l23.623 23.623c.356.355.711.533 1.066.533.355 0 .71-.178 1.066-.533.533-.533.533-1.599 0-2.131L83.625 55.405c-.355-.355-.71-.533-1.066-.533-.355 0-.888.178-1.066.533L69.239 68.904l-24.69-24.69c-.236-.236-.473-.315-.71-.394a2.633 2.633 0 0 1-.355-.138c-.355 0-.888.177-1.066.533L9.38 80.449c-.533.71-.533 1.599.177 2.132.71.532 1.599.532 2.132-.178l31.794-34.814 62.877 62.878c.356.355.711.533 1.066.533.355 0 .71-.178 1.066-.533.533-.533.533-1.599 0-2.131L71.369 71.213zm-43.517 28.952h43.695c.888 0 1.598.533 1.954 1.421 0 .888-.71 1.599-1.599 1.599H28.208c-4.263 0-7.816-3.553-7.816-7.816 0-4.262 3.73-7.637 7.283-9.236 3.197-1.42 6.927-2.664 10.657-3.907 7.46-2.31 16.519-5.329 16.519-8.704 0-3.552-9.414-8.526-16.164-11.012a1.601 1.601 0 0 1-1.066-1.066c-.177-.533 0-1.066.356-1.42l4.618-4.619c.533-.533 1.598-.533 2.131 0 .533.533.533 1.599 0 2.131l-3.02 3.02c5.33 2.131 15.986 7.282 15.986 13.144 0 5.4-8.368 8.237-18.071 11.527l-.579.196c-3.552 1.066-7.282 2.309-10.48 3.73-2.663 1.066-5.328 3.552-5.328 6.394 0 2.487 1.954 4.618 4.618 4.618z"/>
</symbol><symbol id="icon-logo__full" viewBox="0 0 482 150">
    <path d="M23.371 145.808H0l19.026-108.03H41.23L39.482 47.86h.424c2.703-3.714 6.148-6.633 10.334-8.702 4.134-2.122 8.639-3.13 13.514-3.13 4.77 0 9.063.796 12.878 2.334 3.816 1.539 6.996 3.714 9.646 6.527 2.65 2.759 4.61 6.101 5.988 9.975 1.378 3.873 2.067 8.012 2.067 12.522 0 6.261-1.007 12.15-3.02 17.669-2.014 5.518-4.823 10.346-8.427 14.432-3.604 4.086-7.896 7.322-12.772 9.71-4.929 2.388-10.334 3.608-16.164 3.608-5.353 0-10.016-1.008-13.885-3.024-3.922-2.017-6.836-4.723-8.797-8.118h-.318l-7.579 44.145zM70.91 70.41c0-4.404-1.272-8.065-3.816-11.036-2.544-2.971-6.253-4.457-11.13-4.457-2.914 0-5.67.637-8.214 1.91a20.678 20.678 0 0 0-6.571 5.147c-1.855 2.122-3.339 4.616-4.399 7.481-1.06 2.812-1.59 5.784-1.59 8.914 0 4.51 1.378 8.171 4.081 11.037 2.703 2.865 6.466 4.298 11.235 4.298 3.127 0 5.936-.584 8.427-1.804 2.49-1.22 4.61-2.866 6.36-4.988 1.748-2.123 3.126-4.563 4.08-7.375 1.06-2.919 1.537-5.943 1.537-9.127z"/>
    <path d="M93.697 110.683L113.147 0h23.848l-19.609 110.683H93.697z"/>
    <path d="M176.636 100.124c-2.226 3.502-5.352 6.473-9.274 8.861-3.975 2.387-8.48 3.608-13.514 3.608-3.975 0-7.473-.637-10.387-1.804-2.915-1.221-5.353-2.865-7.261-4.882a19.28 19.28 0 0 1-4.187-7.11c-.9-2.706-1.324-5.465-1.324-8.436 0-1.274.053-2.547.159-3.874.106-1.326.317-2.653.582-4.032l7.738-44.676h23.53l-6.995 39.53c-.212 1.06-.318 2.121-.424 3.13a28.905 28.905 0 0 0-.159 3.024c0 2.653.689 4.935 2.12 6.898s3.921 2.918 7.525 2.918c2.12 0 4.081-.424 5.777-1.326a15.868 15.868 0 0 0 4.451-3.502c1.272-1.486 2.332-3.184 3.233-5.147.901-1.963 1.484-3.98 1.908-6.155l6.995-39.37h23.425l-10.229 57.835a138.403 138.403 0 0 0-1.218 7.163 149.85 149.85 0 0 0-.954 7.906h-22.206c.106-1.168.265-2.866.53-5.041.265-2.175.477-4.033.636-5.465h-.477v-.053z"/>
    <path d="M217.602 87.39c1.855 2.759 4.293 4.828 7.367 6.207 3.073 1.433 6.2 2.123 9.433 2.123 3.127 0 5.618-.584 7.525-1.751 1.908-1.167 2.862-2.76 2.862-4.829 0-1.963-.901-3.448-2.65-4.563-1.748-1.06-4.345-2.122-7.737-3.236-3.392-.955-6.413-2.07-9.009-3.29-2.597-1.22-4.77-2.653-6.519-4.245-1.749-1.592-3.074-3.449-3.975-5.571-.901-2.123-1.325-4.563-1.325-7.375 0-3.98.901-7.588 2.703-10.665 1.802-3.131 4.187-5.784 7.155-7.96 2.968-2.175 6.465-3.873 10.44-4.987 3.975-1.114 8.214-1.698 12.56-1.698 5.671 0 10.917.955 15.846 2.865 4.929 1.91 8.85 4.723 11.765 8.437L259.257 59.32c-1.378-1.963-3.233-3.555-5.617-4.829-2.385-1.273-5.247-1.91-8.533-1.91-2.544 0-4.875.478-6.942 1.486-2.12.955-3.127 2.653-3.127 4.988 0 1.644.795 2.97 2.332 3.873 1.537.955 3.974 1.804 7.154 2.706 6.837 1.857 12.189 4.404 16.164 7.694 3.975 3.29 5.936 8.012 5.936 14.273 0 4.404-.954 8.224-2.862 11.514-1.908 3.289-4.399 5.942-7.473 8.065-3.073 2.122-6.571 3.661-10.546 4.669-3.975 1.008-7.949 1.539-12.083 1.539-6.73 0-12.719-1.114-17.966-3.343-5.246-2.229-9.539-5.306-12.878-9.232l14.786-13.424z"/>
    <path d="M276.64 87.39c1.855 2.759 4.293 4.828 7.366 6.207 3.074 1.433 6.201 2.123 9.434 2.123 3.127 0 5.617-.584 7.525-1.751 1.908-1.167 2.862-2.76 2.862-4.829 0-1.963-.901-3.448-2.65-4.563-1.749-1.06-4.346-2.122-7.737-3.236-3.392-.955-6.413-2.07-9.01-3.29-2.596-1.22-4.769-2.653-6.518-4.245-1.749-1.592-3.074-3.449-3.975-5.571-.901-2.123-1.325-4.563-1.325-7.375 0-3.98.901-7.588 2.703-10.665 1.802-3.131 4.187-5.784 7.155-7.96 2.967-2.175 6.465-3.873 10.44-4.987 3.974-1.114 8.214-1.698 12.56-1.698 5.67 0 10.917.955 15.846 2.865 4.928 1.91 8.85 4.723 11.765 8.437l-14.574 12.416c-1.378-1.963-3.233-3.555-5.618-4.829-2.384-1.273-5.246-1.91-8.532-1.91-2.544 0-4.876.478-6.943 1.486-2.119.955-3.126 2.653-3.126 4.987 0 1.645.795 2.972 2.332 3.874 1.536.955 3.974 1.804 7.154 2.706 6.836 1.857 12.189 4.404 16.164 7.694 3.975 3.29 5.935 8.012 5.935 14.273 0 4.404-.954 8.224-2.861 11.514-1.908 3.289-4.399 5.942-7.473 8.065-3.074 2.122-6.571 3.661-10.546 4.669-3.975 1.008-7.95 1.539-12.083 1.539-6.731 0-12.719-1.115-17.966-3.343-5.247-2.229-9.539-5.306-12.878-9.232L276.64 87.39z"/>
    <path d="M350.676 80.492c-.106.371-.159.849-.159 1.326 0 2.07.477 3.874 1.377 5.465a12.796 12.796 0 0 0 3.657 4.086c1.484 1.114 3.233 1.963 5.141 2.547 1.908.584 3.869.902 5.935.902 3.71 0 6.996-.69 9.805-2.07 2.808-1.379 5.352-3.236 7.631-5.57l14.786 11.566c-4.664 4.988-9.91 8.543-15.634 10.771-5.776 2.176-11.924 3.29-18.548 3.29-5.088 0-9.752-.69-14.097-2.122-4.346-1.433-8.109-3.502-11.342-6.314-3.232-2.76-5.776-6.208-7.578-10.347-1.855-4.086-2.756-8.808-2.756-14.06 0-6.262 1.113-12.099 3.286-17.51 2.173-5.413 5.194-10.135 9.062-14.114 3.869-3.98 8.48-7.164 13.832-9.445 5.353-2.282 11.235-3.45 17.701-3.45 4.77 0 9.115.69 13.09 2.07 3.975 1.38 7.313 3.343 10.175 5.943 2.809 2.6 5.035 5.783 6.572 9.604 1.537 3.82 2.332 8.224 2.332 13.159 0 1.75-.159 3.98-.53 6.685a59.716 59.716 0 0 1-1.378 7.535h-52.36v.053zm33.175-14.326a6.72 6.72 0 0 0 .159-1.486v-1.486c0-3.236-1.166-5.89-3.445-8.065-2.278-2.122-5.564-3.236-9.857-3.236-2.65 0-4.982.477-7.101 1.379-2.12.955-3.922 2.07-5.459 3.449-1.537 1.38-2.809 2.865-3.816 4.563-.954 1.645-1.643 3.29-2.067 4.828h31.586v.054z"/>
    <path d="M404.308 110.683L423.757 0h23.848l-19.608 110.683h-23.689z"/>
    <path d="M438.702 110.683L458.152 0H482l-19.609 110.683h-23.689z"/>
    <path d="M52.996 132.756c1.272 0 2.544.265 3.55.849v2.971c-.794-.531-1.96-.849-3.073-.849-1.855 0-3.604.902-3.604 3.237 0 2.228 1.75 3.236 3.551 3.236 1.219 0 2.438-.318 3.233-.849v2.972a9.939 9.939 0 0 1-3.922.795c-3.18 0-6.306-1.857-6.306-5.942.053-4.563 3.338-6.42 6.571-6.42z"/>
    <path d="M59.515 144.694v-11.62h3.338v6.526l5.141-6.526h2.915v11.62H67.57v-6.526l-5.14 6.526h-2.915z"/>
    <path d="M80.13 132.756c1.272 0 2.544.265 3.55.849v2.971c-.794-.531-1.96-.849-3.073-.849-1.855 0-3.604.902-3.604 3.237 0 2.228 1.75 3.236 3.551 3.236 1.22 0 2.438-.318 3.233-.849v2.972a9.939 9.939 0 0 1-3.922.795c-3.18 0-6.306-1.857-6.306-5.942.053-4.563 3.338-6.42 6.571-6.42z"/>
    <path d="M89.299 144.694v-8.755h-3.71v-2.812h10.705v2.812h-3.71v8.755H89.3z"/>
    <path d="M103.607 132.756c4.823 0 6.36 3.82 5.565 7.216h-8.161c.371 1.698 2.172 2.387 4.08 2.387a8.943 8.943 0 0 0 3.498-.689v2.653c-1.06.477-2.491.742-4.24.742-3.656 0-6.73-2.122-6.73-6.154 0-4.404 3.392-6.155 5.988-6.155zm.106 2.546c-1.43 0-2.702.902-2.702 2.494h5.14c.106-.796-.318-2.494-2.438-2.494z"/>
    <path d="M111.928 144.694v-11.62h3.233l3.603 5.73 3.604-5.73h3.18v11.62h-3.233v-6.845l-2.703 4.351h-1.643l-2.702-4.351v6.845h-3.339z"/>
    <path d="M140.069 142.466c.212 0 .424 0 .636-.107v2.176c-.53.212-1.219.318-1.855.318-1.166 0-2.067-.424-2.544-1.326-1.113.902-2.438 1.432-4.187 1.432-2.172 0-4.027-1.273-4.027-3.555 0-2.971 2.756-3.873 5.087-3.873.901 0 1.908.106 2.756.318v-.424c0-1.167-.901-1.963-2.703-1.963-1.59 0-3.02.424-4.08.849v-2.919c.954-.318 2.702-.796 4.504-.796 3.498 0 5.671 1.433 5.671 5.253v3.714c-.106.743.265.903.742.903zm-8.586-1.221c0 .849.795 1.433 1.802 1.433.954 0 1.855-.266 2.597-.955v-1.804c-.53-.106-1.272-.266-1.961-.266-1.272-.053-2.438.372-2.438 1.592z"/>
    <path d="M154.696 132.756c1.272 0 2.544.265 3.551.849v2.971c-.795-.531-1.961-.849-3.074-.849-1.855 0-3.604.902-3.604 3.237 0 2.228 1.749 3.236 3.551 3.236 1.219 0 2.438-.318 3.233-.849v2.972a9.94 9.94 0 0 1-3.922.795c-3.18 0-6.307-1.857-6.307-5.942 0-4.563 3.339-6.42 6.572-6.42z"/>
    <path d="M161.161 144.694v-11.62h3.339v4.404h4.664v-4.404h3.338v11.62h-3.338v-4.404H164.5v4.404h-3.339z"/>
    <path d="M187.076 142.466c.212 0 .424 0 .636-.107v2.176c-.53.212-1.219.318-1.854.318-1.166 0-2.067-.424-2.544-1.326-1.113.902-2.438 1.432-4.187 1.432-2.173 0-4.081-1.273-4.081-3.555 0-2.971 2.756-3.873 5.088-3.873.901 0 1.908.106 2.756.318v-.424c0-1.167-.901-1.963-2.703-1.963-1.59 0-3.021.424-4.081.849v-2.919c.954-.318 2.703-.796 4.505-.796 3.498 0 5.671 1.433 5.671 5.253v3.714c0 .743.37.903.794.903zm-8.585-1.221c0 .849.795 1.433 1.802 1.433.954 0 1.855-.266 2.597-.955v-1.804c-.53-.106-1.272-.266-1.961-.266-1.219-.053-2.438.372-2.438 1.592z"/>
    <path d="M195.662 145.012c-3.392 0-6.201-2.016-6.201-7.004 0-4.138 1.484-6.526 3.551-7.852 3.339-2.07 6.148-1.168 7.79-2.706v3.077c-1.589 1.273-3.497.637-5.776 1.857-1.325.743-1.961 2.176-2.12 3.29.742-1.008 2.014-1.804 3.763-1.804 2.862 0 5.14 2.016 5.14 5.571 0 3.661-2.649 5.571-6.147 5.571zm0-2.653c2.067 0 2.703-1.591 2.703-2.918 0-1.326-.689-2.918-2.703-2.918s-2.756 1.698-2.756 2.918c0 1.274.742 2.918 2.756 2.918z"/>
    <path d="M217.92 144.694l-2.862-4.298h-1.325v4.298h-3.338v-4.298h-1.325l-2.862 4.298h-3.604l4.028-5.837-3.657-5.783h3.551l2.756 4.616h1.06v-4.616h3.339v4.616h1.059l2.756-4.616h3.551l-3.657 5.783 4.028 5.837h-3.498z"/>
    <path d="M228.201 132.756c4.823 0 6.36 3.82 5.565 7.216h-8.161c.371 1.698 2.173 2.387 4.08 2.387a8.943 8.943 0 0 0 3.498-.689v2.653c-1.06.477-2.491.742-4.24.742-3.656 0-6.73-2.122-6.73-6.154.053-4.404 3.392-6.155 5.988-6.155zm.159 2.546c-1.43 0-2.702.902-2.702 2.494h5.14c.106-.796-.371-2.494-2.438-2.494z"/>
    <path d="M236.575 144.694v-11.62h3.339v4.404h4.663v-4.404h3.339v11.62h-3.339v-4.404h-4.663v4.404h-3.339z"/>
    <path d="M251.255 144.694v-11.62h3.339v6.526l5.14-6.526h2.915v11.62h-3.339v-6.526l-5.14 6.526h-2.915z"/>
    <path d="M265.034 144.694l3.021-3.873c-1.59-.69-2.385-2.07-2.385-3.661 0-2.176 1.59-4.033 4.61-4.033h6.254v11.62h-3.339v-3.449h-1.855l-2.597 3.449h-3.709v-.053zm5.988-5.943h2.226v-2.971h-2.226c-1.219 0-1.908.531-1.908 1.486s.689 1.485 1.908 1.485z"/>
    <path d="M285.755 144.694v-11.62h11.394v11.62h-3.338v-8.755h-4.664v8.755h-3.392z"/>
    <path d="M307.696 132.756c3.656 0 5.67 2.971 5.67 6.154 0 3.184-1.961 6.155-5.67 6.155-1.855 0-3.074-.742-3.816-1.591V150h-3.392v-16.926h2.968v1.698c.742-1.008 2.067-2.016 4.24-2.016zm-.848 2.812c-1.484 0-2.544.902-3.021 1.91v2.759c.477 1.008 1.537 1.91 3.021 1.91 1.908 0 3.021-1.486 3.021-3.29 0-1.751-1.113-3.289-3.021-3.289z"/>
    <path d="M321.316 132.756c4.822 0 6.359 3.82 5.564 7.216h-8.161c.371 1.698 2.173 2.387 4.081 2.387 1.324 0 2.49-.265 3.497-.689v2.653c-1.06.477-2.49.742-4.239.742-3.657 0-6.731-2.122-6.731-6.154.053-4.404 3.392-6.155 5.989-6.155zm.106 2.546c-1.431 0-2.703.902-2.703 2.494h5.14c.159-.796-.317-2.494-2.437-2.494z"/>
    <path d="M328.576 147.771v-5.624h1.643c1.378-2.441 1.749-5.359 1.696-9.02h9.539v9.02h1.749v5.624h-3.074v-3.077h-8.373v3.077h-3.18zm5.088-5.624h4.398v-6.473h-3.126c-.053 2.706-.371 4.563-1.272 6.473z"/>
    <path d="M345.747 144.694v-11.62h11.394v11.62h-3.339v-8.755h-4.663v8.755h-3.392z"/>
    <path d="M367.634 132.756c3.657 0 5.671 2.971 5.671 6.154 0 3.184-1.961 6.155-5.671 6.155-1.855 0-3.073-.742-3.815-1.591V150h-3.339v-16.926h2.968v1.698c.689-1.008 2.013-2.016 4.186-2.016zm-.848 2.812c-1.484 0-2.543.902-3.02 1.91v2.759c.477 1.008 1.536 1.91 3.02 1.91 1.908 0 3.021-1.486 3.021-3.29.053-1.751-1.113-3.289-3.021-3.289z"/>
    <path d="M375.955 144.694v-11.62h3.338v6.526l5.141-6.526h2.915v11.62h-3.339v-6.526l-5.14 6.526h-2.915z"/>
    <path d="M389.681 144.694l3.02-3.873c-1.589-.69-2.384-2.07-2.384-3.661 0-2.176 1.59-4.033 4.61-4.033h6.254v11.62h-3.339v-3.449h-1.855l-2.597 3.449h-3.709v-.053zm5.988-5.943h2.226v-2.971h-2.226c-1.219 0-1.908.531-1.908 1.486s.689 1.485 1.908 1.485z"/>
    <path d="M407.275 144.694v-8.755h-3.709v-2.812h10.705v2.812h-3.71v8.755h-3.286z"/>
    <path d="M416.603 144.694v-11.62h3.339v6.526l5.14-6.526h2.915v11.62h-3.339v-6.526l-5.14 6.526h-2.915z"/>
    <path d="M437.059 131.694c-1.484 0-2.649-.318-3.709-.955v-2.494c1.271.69 2.437.902 3.709.902 1.219 0 2.438-.212 3.71-.902v2.494c-1.06.637-2.226.955-3.71.955zm-5.723 13v-11.62h3.338v6.526l5.141-6.526h2.915v11.62h-3.339v-6.526l-5.14 6.526h-2.915z"/>
</symbol><symbol id="icon-logo__slogan" viewBox="0 0 306 108">
    <path fill-rule="evenodd" clip-rule="evenodd" d="M267.781 10.192h-3.564l-5.31 26.207h3.459l21.66-21.146-4.367 21.146h3.668l5.275-26.207h-3.423l-21.66 21.145 4.262-21.145zm2.864-8.91c0 1.56.559 2.809 1.747 3.71 1.188.936 2.795 1.386 4.786 1.386 2.236 0 4.088-.554 5.59-1.664 1.502-1.109 2.48-2.703 2.9-4.714h-2.516c-.349 1.317-1.013 2.392-2.061 3.155-1.013.797-2.271 1.178-3.703 1.178-1.293 0-2.306-.312-3.074-.97-.734-.66-1.118-1.491-1.118-2.566 0-.347 0-.59.035-.797h-2.446c-.105.416-.14.867-.14 1.283zM14.324 30.957L36.158 1.56H32.35L15.092 25.063 7.581 1.56H3.703l8.839 26.554-1.502 1.802c-1.992 2.6-4.228 3.883-6.673 3.883-.908 0-1.887-.243-3.005-.659L0 36.017c1.432.659 2.865 1.006 4.332 1.006 3.703 0 7.022-2.01 9.992-6.067zm16.314.416c.979 1.664 2.376 2.981 4.228 3.883 1.816.936 3.982 1.386 6.498 1.352 2.27 0 4.402-.451 6.358-1.318 1.956-.9 3.493-2.114 4.681-3.674l-2.55-1.941a9.282 9.282 0 0 1-3.598 2.807c-1.468.66-3.04.971-4.752.971-2.794 0-4.96-.728-6.498-2.15-1.502-1.42-2.27-3.396-2.27-5.962 0-2.357.489-4.437 1.467-6.309a11.311 11.311 0 0 1 4.122-4.367c1.782-1.075 3.738-1.595 5.904-1.595 3.634 0 6.184 1.282 7.686 3.882l3.005-1.733c-.979-1.733-2.341-3.05-4.088-3.917-1.747-.867-3.843-1.317-6.288-1.317-2.935 0-5.59.658-7.93 2.01-2.341 1.352-4.193 3.19-5.485 5.547-1.293 2.357-1.957 5.026-1.957 7.973 0 2.218.49 4.194 1.467 5.858zm39.233-8.285l8.49 13.277h-4.053l-7.232-11.648h-6.218l-2.341 11.648h-3.564l5.31-26.172h3.564L61.487 21.7h5.869l11.633-11.508h4.018L69.87 23.087zm11.703 8.285c.978 1.664 2.376 2.981 4.193 3.883 1.816.936 3.912 1.386 6.358 1.352 2.934 0 5.52-.659 7.86-2.01a14.235 14.235 0 0 0 5.45-5.582c1.293-2.357 1.957-5.027 1.957-7.973 0-3.397-1.083-6.101-3.249-8.077-2.166-1.976-5.1-2.981-8.77-2.981-2.934 0-5.519.658-7.86 2.01-2.34 1.352-4.157 3.19-5.45 5.547-1.292 2.357-1.956 5.026-1.956 7.973 0 2.218.49 4.194 1.467 5.858zm20.717-3.813c-.978 1.872-2.34 3.328-4.087 4.368-1.712 1.04-3.669 1.56-5.87 1.594-2.725 0-4.856-.727-6.393-2.149-1.502-1.421-2.27-3.397-2.27-5.962 0-2.323.488-4.437 1.467-6.31.978-1.871 2.34-3.327 4.087-4.402 1.747-1.074 3.703-1.594 5.87-1.594 2.724 0 4.855.693 6.393 2.149 1.502 1.456 2.27 3.432 2.27 5.997 0 2.323-.489 4.437-1.467 6.309zm31.163-16.224c1.746.902 3.109 2.184 4.087 3.848.978 1.664 1.467 3.606 1.467 5.859 0 2.946-.629 5.616-1.921 7.973-1.293 2.357-3.075 4.229-5.345 5.58-2.271 1.353-4.821 2.011-7.686 2.011-2.515 0-4.612-.485-6.323-1.455-1.712-.971-2.935-2.392-3.704-4.264l-3.004 15.148h-3.563l7.161-35.843h3.424l-.838 4.194c1.257-1.421 2.759-2.53 4.506-3.258 1.747-.763 3.668-1.11 5.765-1.11 2.235 0 4.227.45 5.974 1.317zm-3.599 20.592c1.712-1.04 3.075-2.496 4.053-4.368.978-1.872 1.467-3.952 1.467-6.31 0-2.564-.769-4.54-2.271-5.996-1.537-1.456-3.668-2.15-6.393-2.15-2.166 0-4.122.52-5.834 1.56-1.712 1.04-3.075 2.496-4.053 4.368-.978 1.872-1.467 3.987-1.467 6.344 0 2.565.769 4.541 2.271 5.962 1.537 1.422 3.668 2.15 6.393 2.15 2.166 0 4.087-.52 5.834-1.56zm32.84-.208c1.013-1.526 1.537-3.293 1.537-5.27 0-4.68-2.97-7.036-8.874-7.036h-7.441l1.782-9.083h-3.564l-5.275 26.103h11.04c2.445 0 4.611-.416 6.463-1.213 1.886-.832 3.319-1.976 4.332-3.501zm-2.027-4.992c0 2.115-.803 3.779-2.41 5.061-1.607 1.283-3.703 1.907-6.289 1.907h-6.882l2.306-11.648h6.917c2.131 0 3.738.416 4.786 1.179 1.048.762 1.572 1.941 1.572 3.501zm21.381 8.528c-1.852-.902-3.249-2.219-4.227-3.883-.978-1.664-1.468-3.64-1.468-5.858 0-2.947.664-5.616 1.957-7.973 1.292-2.357 3.144-4.195 5.485-5.547 2.34-1.352 4.995-2.01 7.93-2.01 2.446 0 4.542.45 6.288 1.317 1.747.867 3.11 2.184 4.088 3.917l-3.005 1.733c-1.502-2.6-4.052-3.882-7.685-3.882-2.166 0-4.123.52-5.904 1.595a11.31 11.31 0 0 0-4.123 4.367c-.978 1.872-1.467 3.952-1.467 6.31 0 2.565.768 4.54 2.271 5.962 1.537 1.421 3.703 2.15 6.498 2.15 1.711 0 3.284-.313 4.751-.972a9.282 9.282 0 0 0 3.598-2.807l2.551 1.94c-1.188 1.56-2.725 2.774-4.682 3.675-1.956.867-4.087 1.318-6.358 1.318-2.515.034-4.647-.416-6.498-1.352zm40.77-1.04c2.061-1.456 3.074-3.432 3.074-5.998 0-2.842-1.467-4.61-4.367-5.303 1.852-.555 3.284-1.422 4.332-2.6 1.048-1.213 1.572-2.635 1.572-4.299 0-1.906-.733-3.328-2.166-4.333-1.432-1.005-3.563-1.49-6.323-1.49h-11.494l-5.31 26.172h12.192c3.599 0 6.429-.694 8.49-2.15zm-.42-6.067c0 1.699-.698 3.05-2.096 4.021-1.397.936-3.319 1.422-5.799 1.49h-8.315l1.852-9.116h8.839c1.956 0 3.388.277 4.227.832.873.555 1.292 1.49 1.292 2.773zm-6.008-6.309h-7.861l1.817-8.874h7.895c3.668 0 5.52 1.213 5.52 3.64 0 1.56-.664 2.808-2.026 3.778-1.363.97-3.145 1.456-5.345 1.456zm19.004 13.416c-1.816-.902-3.214-2.219-4.192-3.883-.978-1.664-1.467-3.64-1.467-5.858 0-2.947.664-5.616 1.956-7.973 1.293-2.357 3.109-4.195 5.45-5.547 2.341-1.352 4.926-2.01 7.861-2.01 3.668 0 6.602 1.005 8.768 2.98 2.166 1.977 3.249 4.68 3.249 8.078 0 2.946-.663 5.616-1.956 7.973a14.24 14.24 0 0 1-5.45 5.581c-2.341 1.352-4.926 2.01-7.86 2.01-2.446.035-4.577-.415-6.359-1.351zm12.437-3.328c1.747-1.04 3.11-2.496 4.088-4.368.978-1.872 1.467-3.986 1.467-6.31 0-2.564-.768-4.54-2.271-5.996-1.537-1.456-3.668-2.15-6.393-2.15-2.166 0-4.122.52-5.869 1.595-1.747 1.075-3.109 2.53-4.087 4.403-.979 1.872-1.468 3.986-1.468 6.309 0 2.565.769 4.54 2.271 5.962 1.537 1.422 3.668 2.15 6.393 2.15 2.166-.035 4.123-.555 5.869-1.595zM13.625 54.77h38.29l-.979 4.68H18.062l-3.354 16.986h17.118c5.38 0 9.468 1.075 12.193 3.259 2.76 2.183 4.122 5.407 4.122 9.74 0 5.443-2.096 9.672-6.253 12.723-4.158 3.05-9.922 4.576-17.328 4.576H3.18l10.445-51.964zm11.703 47.596c5.38 0 9.573-1.11 12.612-3.294 3.005-2.218 4.542-5.269 4.542-9.255 0-3.12-1.014-5.408-3.075-6.83-2.06-1.42-5.275-2.148-9.712-2.148H13.8l-4.332 21.527h15.86zm43.74-47.596h-5.38l-10.446 51.964h4.996L100.51 63.75l-8.77 42.985h5.38l10.481-51.964h-4.995L60.404 97.826l8.664-43.055zm75.914 28.946c1.537 1.872 2.271 4.16 2.271 6.829 0 3.258-1.118 6.17-3.319 8.77-2.236 2.565-5.135 4.576-8.803 5.962-3.634 1.422-7.442 2.115-11.459 2.115-3.529 0-6.918-.589-10.132-1.733-3.214-1.179-5.974-2.877-8.279-5.165l2.829-3.918c1.887 1.976 4.228 3.467 6.988 4.438 2.759 1.005 5.659 1.49 8.698 1.49 3.11 0 6.009-.52 8.769-1.525 2.725-1.005 4.961-2.461 6.673-4.333 1.712-1.872 2.55-4.056 2.55-6.517 0-2.635-1.013-4.61-3.039-5.997-2.026-1.387-4.961-2.08-8.804-2.08h-11.389l.908-4.438h11.145c4.087 0 7.371-.9 9.817-2.738 2.445-1.837 3.668-4.23 3.668-7.21 0-2.808-1.118-4.992-3.354-6.483-2.236-1.525-5.205-2.253-8.838-2.253-2.446 0-4.996.347-7.721 1.075a35.973 35.973 0 0 0-7.931 3.223l-.978-4.54c5.869-3.017 11.669-4.542 17.363-4.542 4.996 0 9.118 1.11 12.332 3.363 3.249 2.253 4.856 5.338 4.856 9.255 0 3.085-1.013 5.755-3.074 8.043-2.061 2.288-4.821 3.917-8.315 4.853 2.9.832 5.031 2.184 6.568 4.056zm52.159 23.018l10.481-51.964h-5.45l-4.647 23.087h-32.769l4.646-23.087h-5.45l-10.48 51.964h5.45l4.786-23.92h32.769l-4.786 23.92h5.45zm28.228-47.215l-3.738 18.477h27.145l-.909 4.68h-27.144l-3.878 19.308h31.512l-.979 4.75h-36.961l10.48-51.964h35.914l-.978 4.75h-30.464zm33.014 37.404c1.921 3.224 4.716 5.755 8.419 7.557 3.704 1.803 8.105 2.704 13.136 2.739 4.157 0 8-.659 11.529-1.942 3.563-1.282 6.463-3.085 8.769-5.477l-3.214-3.64c-4.228 4.126-9.747 6.171-16.595 6.171-6.218 0-11.039-1.525-14.393-4.61-3.389-3.086-5.066-7.211-5.066-12.41 0-4.75 1.083-9.118 3.214-13.07 2.131-3.952 5.171-7.106 9.118-9.463 3.948-2.358 8.49-3.536 13.625-3.536 6.778 0 11.843 2.045 15.197 6.101L306 61.912c-1.747-2.426-4.227-4.298-7.476-5.616-3.249-1.317-6.952-1.976-11.145-1.976-6.358 0-11.948 1.387-16.769 4.195-4.821 2.808-8.559 6.586-11.179 11.335-2.62 4.75-3.913 9.984-3.913 15.739 0 4.333.943 8.111 2.865 11.335z"/>
</symbol><symbol id="icon-logo__small" viewBox="0 0 202 92">
    <path fill-rule="evenodd" clip-rule="evenodd" d="M127.094 31.606c-3.438-2.818-8.104-4.778-14.122-6.37-2.824-.735-4.911-1.47-6.262-2.205-1.351-.858-2.088-1.838-2.088-3.185 0-1.96.86-3.308 2.825-4.166 1.719-.857 3.806-1.225 6.017-1.225 2.824 0 5.403.49 7.49 1.593 2.088 1.103 3.807 2.45 4.912 4.043L138.76 9.554c-2.579-3.185-6.017-5.39-10.315-7.105C124.147.858 119.481 0 114.569 0c-3.807 0-7.491.49-10.929 1.47a26.883 26.883 0 0 0-9.087 4.165c-2.579 1.838-4.666 4.043-6.263 6.738-1.596 2.572-2.333 5.513-2.333 8.943 0 2.327.369 4.41 1.228 6.125.86 1.715 1.842 3.307 3.439 4.655 1.473 1.347 3.438 2.45 5.771 3.553 2.21.98 4.912 1.96 7.859 2.817 2.947.858 5.28 1.715 6.754 2.695 1.473.858 2.333 2.083 2.333 3.798 0 1.715-.86 3.062-2.456 4.042-1.719.98-3.807 1.47-6.631 1.47-2.614 0-5.018-.734-7.6-1.523l-.627-.192c-3.684-1.347-9.333-4.655-12.403-7.227-.053.185-.106.377-.16.572v.002c-.198.708-.411 1.476-.7 2.243-1.473 3.798-3.438 7.35-5.894 10.413v.123c2.825 3.185 6.631 5.757 11.298 7.595 4.543 1.837 9.823 2.817 15.718 2.817 3.561 0 7.122-.49 10.56-1.225a25.871 25.871 0 0 0 9.21-3.92c2.701-1.837 4.789-4.043 6.508-6.738 1.719-2.817 2.456-5.88 2.456-9.555-.368-5.635-2.088-9.433-5.526-12.25zm11.052 26.95l-.86 6.126h63.854l.86-6.125h-63.854zM66.924 2.696c3.316 1.225 6.14 3.063 8.35 5.39 2.333 2.328 4.052 5.023 5.28 8.208 1.106 3.185 1.72 6.615 1.72 10.413 0 5.145-.86 10.045-2.58 14.7-1.841 4.533-4.297 8.575-7.367 12.005-3.193 3.43-6.877 6.125-11.174 8.085A33.976 33.976 0 0 1 47.03 64.56c-4.666 0-8.718-.735-12.157-2.45-3.315-1.715-5.894-3.92-7.613-6.738h-.246L20.507 92H0L16.7 2.205h19.28l-1.474 8.33h.368c2.333-3.062 5.28-5.513 8.964-7.228C47.522 1.592 51.452.735 55.627.735s7.981.612 11.297 1.96zm-9.947 40.181c1.474-1.715 2.702-3.798 3.562-6.125.982-2.328 1.35-4.778 1.35-7.595 0-3.675-1.105-6.615-3.315-9.188-2.21-2.573-5.403-3.798-9.701-3.798-2.579 0-4.912.49-7.122 1.593-2.333 1.102-4.175 2.572-5.772 4.287-1.596 1.715-2.824 3.798-3.806 6.248-.983 2.45-1.474 4.9-1.474 7.473 0 3.797 1.105 6.737 3.561 9.188 2.333 2.327 5.649 3.552 9.824 3.552 2.824 0 5.28-.49 7.368-1.47 2.087-.98 4.052-2.45 5.526-4.165z"/>
</symbol></svg>