<svg width="202" height="92" viewBox="0 0 202 92" fill="none" xmlns="http://www.w3.org/2000/svg">
<path fill-rule="evenodd" clip-rule="evenodd" d="M127.094 31.6059C123.656 28.7883 118.99 26.8282 112.972 25.2357C110.148 24.5007 108.061 23.7656 106.71 23.0306C105.359 22.1731 104.622 21.1931 104.622 19.8455C104.622 17.8855 105.482 16.5379 107.447 15.6804C109.166 14.8229 111.253 14.4554 113.464 14.4554C116.288 14.4554 118.867 14.9454 120.954 16.0479C123.042 17.1505 124.761 18.498 125.866 20.0905L138.76 9.55526C136.181 6.37017 132.743 4.16511 128.445 2.45007C124.147 0.857523 119.481 0 114.569 0C110.762 0 107.078 0.490013 103.64 1.47004C100.202 2.32756 97.1318 3.7976 94.553 5.63515C91.9743 7.4727 89.8868 9.67776 88.2904 12.3728C86.6941 14.9454 85.9573 17.8855 85.9573 21.3156C85.9573 23.6431 86.3257 25.7257 87.1853 27.4407C88.0448 29.1558 89.0272 30.7483 90.6236 32.0959C92.0971 33.4434 94.0619 34.5459 96.395 35.6485C98.6053 36.6285 101.307 37.6085 104.254 38.466C107.201 39.3236 109.534 40.1811 111.008 41.1611C112.481 42.0186 113.341 43.2437 113.341 44.9587C113.341 46.6738 112.481 48.0213 110.885 49.0013C109.166 49.9814 107.078 50.4714 104.254 50.4714C101.64 50.4714 99.2364 49.7368 96.6538 48.9476C96.4459 48.8841 96.2369 48.8202 96.0266 48.7563C92.3427 47.4088 86.6941 44.1012 83.6242 41.5286C83.571 41.7142 83.5179 41.9055 83.4635 42.1013L83.4631 42.1029C83.2662 42.8114 83.053 43.5788 82.7646 44.3462C81.291 48.1438 79.3263 51.6964 76.8704 54.759V54.8815C79.6947 58.0666 83.5014 60.6391 88.1676 62.4767C92.7111 64.3142 97.9913 65.2943 103.886 65.2943C107.447 65.2943 111.008 64.8043 114.446 64.0692C117.884 63.3342 120.954 61.9867 123.656 60.1491C126.357 58.3116 128.445 56.1065 130.164 53.4114C131.883 50.5939 132.62 47.5313 132.62 43.8562C132.252 38.221 130.532 34.4234 127.094 31.6059ZM138.146 58.5566L137.286 64.6818H201.14L202 58.5566H138.146ZM66.924 2.69492C70.2395 3.91995 73.0638 5.7575 75.2742 8.08506C77.6073 10.4126 79.3264 13.1077 80.5544 16.2928C81.6596 19.4779 82.2735 22.908 82.2735 26.7056C82.2735 31.8507 81.414 36.7508 79.6948 41.406C77.8529 45.9386 75.3969 49.9812 72.327 53.4113C69.1343 56.8414 65.4504 59.5365 61.1526 61.4965C56.8547 63.4566 52.0656 64.5591 47.031 64.5591C42.3647 64.5591 38.3125 63.8241 34.8742 62.109C31.5587 60.394 28.9799 58.1889 27.2608 55.3713H27.0152L20.507 91.9999H0L16.7003 2.2049H35.9793L34.5058 10.5351H34.8742C37.2073 7.47255 40.1544 5.02248 43.8383 3.30743C47.5222 1.59239 51.4517 0.734863 55.6267 0.734863C59.8018 0.734863 63.6085 1.34738 66.924 2.69492ZM56.9775 42.876C58.4511 41.161 59.679 39.0784 60.5386 36.7508C61.521 34.4233 61.8894 31.9732 61.8894 29.1556C61.8894 25.4805 60.7842 22.5405 58.5739 19.9679C56.3635 17.3953 53.1708 16.1703 48.8729 16.1703C46.2942 16.1703 43.9611 16.6603 41.7508 17.7628C39.4176 18.8654 37.5757 20.3354 35.9793 22.0504C34.383 23.7655 33.155 25.848 32.1726 28.2981C31.1903 30.7482 30.6991 33.1982 30.6991 35.7708C30.6991 39.5684 31.8042 42.5085 34.2602 44.9586C36.5933 47.2861 39.9088 48.5112 44.0839 48.5112C46.9082 48.5112 49.3641 48.0212 51.4517 47.0411C53.5392 46.0611 55.5039 44.5911 56.9775 42.876Z" fill="white"/>
</svg>
