<svg width="669" height="446" viewBox="0 0 669 446" fill="none" xmlns="http://www.w3.org/2000/svg">
<path fill-rule="evenodd" clip-rule="evenodd" d="M8 0C3.58172 0 0 3.58173 0 8.00001V438C0 442.418 3.58171 446 7.99998 446H661C665.418 446 669 442.418 669 438V8C669 3.58172 665.418 0 661 0H8ZM664.54 39.025H3.345V437.655C3.345 440.416 5.58356 442.655 8.34498 442.655H659.54C662.301 442.655 664.54 440.416 664.54 437.655V39.025Z" fill="#E8E8E8"/>
<line x1="666.77" y1="33.335" x2="-1.1657e-08" y2="33.335" stroke="#BCBCBC" stroke-width="2"/>
<path fill-rule="evenodd" clip-rule="evenodd" d="M23 15.5C23 17.433 21.433 19 19.5 19C17.567 19 16 17.433 16 15.5C16 13.567 17.567 12 19.5 12C21.433 12 23 13.567 23 15.5ZM34 15.5C34 13.567 32.433 12 30.5 12C28.567 12 27 13.567 27 15.5C27 17.433 28.567 19 30.5 19C32.433 19 34 17.433 34 15.5ZM41.5 12C43.433 12 45 13.567 45 15.5C45 17.433 43.433 19 41.5 19C39.567 19 38 17.433 38 15.5C38 13.567 39.567 12 41.5 12Z" fill="#BABABA"/>
</svg>
